<svg xmlns="http://www.w3.org/2000/svg" viewBox="0 0 120 118.59"><defs><style>.cls-1{fill:#efefef;}.cls-2{fill:#cccbca;}.cls-3{fill:#3f4a5a;}.cls-4{fill:#f67656;}.cls-5{fill:#e66847;}.cls-6{fill:#fff;}</style></defs><title>icon</title><g id="Layer_2" data-name="Layer 2"><g id="Layer_1-2" data-name="Layer 1"><path class="cls-1" d="M120,7.76V87.53a7.76,7.76,0,0,1-7.76,7.76H7.76A7.76,7.76,0,0,1,0,87.53V7.76Z"/><path class="cls-2" d="M112.24,0a7.76,7.76,0,0,0-7.76,7.76V87.53a7.76,7.76,0,0,1,15.53,0V7.76A7.76,7.76,0,0,0,112.24,0Z"/><path class="cls-2" d="M7.76,0a7.76,7.76,0,0,1,7.76,7.76V87.53A7.76,7.76,0,0,0,0,87.53V7.76A7.76,7.76,0,0,1,7.76,0Z"/><path class="cls-3" d="M63.14,79.06H56.86l-1.18-5.89a21.91,21.91,0,0,1-2.77-.73l-4,4.51L43.52,73.8l1.92-5.68a22,22,0,0,1-2-2L37.73,68l-3.14-5.43,4.5-4a21.92,21.92,0,0,1-.73-2.76l-5.89-1.18V48.39l5.89-1.18a22,22,0,0,1,.73-2.77l-4.5-4L37.73,35,43.41,37a22.05,22.05,0,0,1,2-2l-1.92-5.69L49,26.12l4,4.51a21.71,21.71,0,0,1,2.76-.73L56.86,24h6.28l1.18,5.9a21.94,21.94,0,0,1,2.76.73l4-4.51,5.45,3.14-1.93,5.69a22.23,22.23,0,0,1,2,2L82.27,35l3.14,5.43-4.51,4a21.53,21.53,0,0,1,.73,2.76l5.89,1.18v6.28l-5.9,1.18a21.51,21.51,0,0,1-.73,2.76l4.51,4L82.27,68l-5.69-1.92a22.24,22.24,0,0,1-2,2l1.93,5.69L71,76.94l-4-4.51a22.13,22.13,0,0,1-2.76.73Zm-4-2.82h1.65l1.11-5.54,1-.15A19.23,19.23,0,0,0,67,69.46l.92-.36,3.73,4.24,1.43-.83-1.81-5.34.77-.62a19.39,19.39,0,0,0,3-3l.62-.77L81,64.6l.82-1.43-4.24-3.73.36-.92A18.72,18.72,0,0,0,79,54.45l.15-1,5.55-1.11V50.7l-5.55-1.11-.15-1a18.75,18.75,0,0,0-1.08-4.07l-.36-.92,4.24-3.73L81,38.46l-5.34,1.8L75,39.5a19.4,19.4,0,0,0-3-3l-.77-.62,1.81-5.34-1.43-.83L67.91,34,67,33.6a19,19,0,0,0-4.08-1.08l-1-.15-1.11-5.54H59.17l-1.11,5.54-1,.15A18.94,18.94,0,0,0,53,33.6l-.92.36-3.73-4.24-1.43.82,1.8,5.34-.77.62a19.17,19.17,0,0,0-3,3l-.62.77L39,38.46l-.82,1.43,4.23,3.73-.36.92A19.07,19.07,0,0,0,41,48.62l-.15,1-5.54,1.11v1.65l5.54,1.11.15,1a19.06,19.06,0,0,0,1.08,4.08l.36.92-4.23,3.73L39,64.6l5.34-1.81.62.77a19.36,19.36,0,0,0,3,3l.77.62-1.8,5.34,1.43.83,3.73-4.24.92.36a19.09,19.09,0,0,0,4.08,1.08l1,.15ZM60,63.5a12,12,0,1,1,12-12A12,12,0,0,1,60,63.5Zm0-21.12a9.15,9.15,0,1,0,9.15,9.15A9.16,9.16,0,0,0,60,42.38Z"/><path class="cls-3" d="M60,57.15a5.62,5.62,0,1,1,5.62-5.62A5.63,5.63,0,0,1,60,57.15Zm0-8.42a2.8,2.8,0,1,0,2.8,2.8A2.8,2.8,0,0,0,60,48.73Z"/><rect class="cls-4" y="100.24" width="120" height="18.35"/><rect class="cls-5" y="112.94" width="120" height="5.65"/><rect class="cls-6" x="5.25" y="100.24" width="2.82" height="5.65"/><rect class="cls-6" x="11.92" y="100.24" width="2.82" height="2.82"/><rect class="cls-6" x="18.59" y="100.24" width="2.82" height="5.65"/><rect class="cls-6" x="25.25" y="100.24" width="2.82" height="2.82"/><rect class="cls-6" x="31.92" y="100.24" width="2.82" height="5.65"/><rect class="cls-6" x="38.59" y="100.24" width="2.82" height="2.82"/><rect class="cls-6" x="45.25" y="100.24" width="2.82" height="5.65"/><rect class="cls-6" x="51.92" y="100.24" width="2.82" height="2.82"/><rect class="cls-6" x="58.59" y="100.24" width="2.82" height="5.65"/><rect class="cls-6" x="65.26" y="100.24" width="2.82" height="2.82"/><rect class="cls-6" x="71.92" y="100.24" width="2.82" height="5.65"/><rect class="cls-6" x="78.59" y="100.24" width="2.82" height="2.82"/><rect class="cls-6" x="85.25" y="100.24" width="2.82" height="5.65"/><rect class="cls-6" x="91.92" y="100.24" width="2.82" height="2.82"/><rect class="cls-6" x="98.59" y="100.24" width="2.82" height="5.65"/><rect class="cls-6" x="105.25" y="100.24" width="2.82" height="2.82"/><rect class="cls-6" x="111.92" y="100.24" width="2.82" height="5.65"/></g></g></svg>