<?xml version="1.0" encoding="utf-8"?>
<!-- Generator: Adobe Illustrator 23.0.3, SVG Export Plug-In . SVG Version: 6.00 Build 0)  -->
<svg version="1.1" id="Ebene_1" xmlns="http://www.w3.org/2000/svg" xmlns:xlink="http://www.w3.org/1999/xlink" x="0px" y="0px"
	 viewBox="0 0 1000 1000" style="enable-background:new 0 0 1000 1000;" xml:space="preserve">
<style type="text/css">
	.st0{fill:#FFFFFF;}
</style>
<g>
	<path class="st0" d="M500,623.8L159.9,963.9c-34.6,34.6-90.1,34.7-124.3,0.5c-34.4-34.4-34-89.8,0.5-124.3L376.2,500L36.1,159.9
		C1.5,125.3,1.4,69.8,35.6,35.6c34.4-34.4,89.8-34,124.3,0.5L500,376.2L840.1,36.1c34.6-34.6,90.1-34.7,124.3-0.5
		c34.4,34.4,34,89.8-0.5,124.3L623.8,500l340.1,340.1c34.6,34.6,34.7,90.1,0.5,124.3c-34.4,34.4-89.8,34-124.3-0.5L500,623.8z"/>
</g>
</svg>
