<?xml version="1.0" encoding="utf-8"?>
<!-- Generator: Adobe Illustrator 16.0.0, SVG Export Plug-In . SVG Version: 6.00 Build 0)  -->
<!DOCTYPE svg PUBLIC "-//W3C//DTD SVG 1.1//EN" "http://www.w3.org/Graphics/SVG/1.1/DTD/svg11.dtd">
<svg version="1.1" xmlns="http://www.w3.org/2000/svg" xmlns:xlink="http://www.w3.org/1999/xlink" x="0px" y="0px" width="512px"
	 height="512px" viewBox="0 0 512 512" enable-background="new 0 0 512 512" xml:space="preserve">
<g id="Palette" display="none">
	<rect x="-4549" y="-5124" display="inline" fill="#FFFFFF" width="9201" height="7668"/>
</g>
<g id="Others">
	<g id="files">
	</g>
	<g id="pencil_rocket">
	</g>
	<g id="magic_hat__x26__rabbit">
	</g>
	<g id="phone__x26__target">
	</g>
	<g id="toast">
	</g>
	<g id="coffee">
	</g>
	<g id="suit">
	</g>
	<g id="DNA_tube">
	</g>
	<g id="clapper">
	</g>
	<g id="stopwatch">
	</g>
	<g id="map__x26__locator">
	</g>
	<g id="envelope">
	</g>
	<g id="phone__x26__megaphone">
	</g>
	<g id="speech_bubble">
	</g>
	<g id="medal">
	</g>
</g>
<g id="Design">
	<g id="blueprint">
	</g>
	<g id="computer__x26__pencil__x26__ruker">
	</g>
	<g id="pencil__x26__ruler__x26__eraser">
	</g>
	<g id="paint_brush">
	</g>
	<g id="eraser">
	</g>
	<g id="round_brush">
	</g>
	<g id="scissor">
	</g>
	<g id="wacom">
	</g>
	<g id="vector">
	</g>
	<g id="lightbulb">
	</g>
	<g id="lamp">
	</g>
	<g id="pencil__x26__brush">
	</g>
	<g id="laptop__x26__brush">
	</g>
	<g id="paint">
	</g>
	<g id="magic_wand">
	</g>
</g>
<g id="SEO_x2F__Web">
	<g id="W_key">
		<radialGradient id="SVGID_1_" cx="256" cy="256" r="256" gradientUnits="userSpaceOnUse">
			<stop  offset="0.0051" style="stop-color:#33495F"/>
			<stop  offset="1" style="stop-color:#2B3E51"/>
		</radialGradient>
		<circle fill="url(#SVGID_1_)" cx="256" cy="256" r="256"/>
		<g>
			<path fill="#F4C342" d="M415.437,257.413c39.756-39.758,39.756-104.213,0-143.968c-39.756-39.759-104.214-39.759-143.97-0.003
				c-34.753,34.754-39.123,88.383-13.118,127.887l-78.961,78.964l-26.052-26.055c-1.198-1.198-3.273-1.083-4.473,0.114
				l-10.35,10.352c-1.198,1.199-0.895,2.854,0.304,4.053l1.09,1.09c1.198,1.198,1.094,3.662-0.104,4.861l-11.438,11.438
				c-1.199,1.199-1.43,2.992-0.231,4.19l4.357,4.358c1.199,1.198,1.587,3.484,0.388,4.684l-19.064,19.064
				c-1.199,1.197-1.555,2.801-0.355,4.001l11.889,11.89l-6.453,6.452L84.21,346.101c-1.773-1.773-4.678-1.773-6.453,0l-9.679,9.68
				c-1.774,1.774-1.774,4.679,0,6.453l34.684,34.685l23.392,23.391l8.066,8.065L290.313,272.28
				C329.524,296.313,381.485,291.364,415.437,257.413z M293.782,235.097c-27.432-27.432-27.432-71.906,0-99.34
				c27.433-27.43,71.906-27.43,99.338,0.002c27.432,27.434,27.433,71.906,0,99.336C365.688,262.528,321.214,262.53,293.782,235.097z
				"/>
			<path fill="#F89B36" d="M256.014,274.315l-65.333,65.334l-13.954-13.953c-1.198-1.199-3.273-1.084-4.473,0.115l-4.702,4.703
				c-0.093,0.092-0.16,0.191-0.234,0.289l-10.514-10.511c-1.775-1.776-4.678-1.778-6.453,0l-0.807,0.805
				c-1.774,1.774-1.774,4.679,0,6.451l16.133,16.132l-8.275,8.277c-1.199,1.199-1.43,2.99-0.23,4.188l0.324,0.326
				c1.198,1.198,1.586,3.483,0.387,4.682l-4.304,4.306l-9.681-9.68c-1.774-1.774-4.678-1.774-6.452,0l-0.807,0.807
				c-1.774,1.773-1.775,4.679,0,6.453l9.679,9.68l-7.5,7.499c-1.198,1.2-1.555,2.804-0.356,4.001l3.824,3.824l-6.452,6.453
				l-9.68-9.68c-1.774-1.773-4.679-1.773-6.453,0l-1.613,1.613L101.955,370.3c-1.774-1.775-4.496-1.957-6.049-0.404
				s-1.371,4.274,0.403,6.051l16.133,16.131l-2.422,2.42c-1.774,1.774-1.774,4.678,0,6.453l25.812,25.811l136.313-136.312
				L256.014,274.315z"/>
			<path fill="#F89B36" d="M399.304,129.575c-30.797-30.797-80.908-30.797-111.704,0c-30.798,30.797-30.798,80.908,0,111.705
				c30.796,30.799,80.907,30.799,111.704,0C430.102,210.483,430.102,160.372,399.304,129.575z M296.472,232.409
				c-25.906-25.906-25.906-68.057,0-93.963c25.903-25.904,68.055-25.904,93.96,0.002c25.905,25.904,25.905,68.055,0,93.961
				C364.526,258.312,322.375,258.312,296.472,232.409z"/>
			<g>
				<path fill="#F89B36" d="M326.329,225.761l31.24-54.303l-54.451,31.092c-4.153,2.34-7.203,3.943-9.148,4.818
					c-1.947,0.879-4.145,1.211-6.594,0.999s-4.777-1.421-6.982-3.626c-1.784-1.785-2.919-3.584-3.406-5.4
					c-0.489-1.819-0.481-3.692,0.025-5.621c0.499-1.93,1.36-3.958,2.578-6.084c1.215-2.125,2.359-4.076,3.429-5.861l36.155-59.897
					c2.075-3.506,3.844-5.989,5.303-7.448c1.85-1.848,4.056-2.758,6.619-2.724c2.562,0.03,4.801,1.005,6.716,2.918
					c2.627,2.627,3.551,5.241,2.774,7.833c-0.78,2.596-2.435,5.842-4.967,9.734l-32.309,50.992l49.438-28.514
					c3.766-2.205,6.734-3.779,8.906-4.723c2.174-0.938,4.525-1.278,7.056-1.018c2.53,0.258,4.995,1.588,7.397,3.99
					c2.432,2.433,3.727,4.914,3.892,7.443c0.162,2.531-0.195,4.752-1.071,6.666c-0.875,1.916-2.482,4.918-4.816,9.002
					l-28.418,49.535l50.995-32.309c2.628-1.717,4.759-2.992,6.398-3.817c1.639-0.829,3.44-1.234,5.402-1.22
					c1.962,0.018,3.884,0.965,5.767,2.848c1.882,1.88,2.854,4.104,2.92,6.666c0.062,2.564-0.844,4.783-2.728,6.668
					c-1.329,1.328-3.811,3.097-7.445,5.303l-59.898,36.154c-4.055,2.433-7.104,4.135-9.147,5.109
					c-2.046,0.975-4.274,1.387-6.691,1.24c-2.414-0.146-4.792-1.386-7.127-3.723c-2.209-2.207-3.423-4.527-3.651-6.959
					c-0.228-2.432,0.089-4.598,0.949-6.496C322.296,233.134,323.927,230.045,326.329,225.761z"/>
			</g>
			<g>
				<path fill="#F89B36" d="M326.329,225.761l31.24-54.303l-54.451,31.092c-4.153,2.34-7.203,3.943-9.148,4.818
					c-1.947,0.879-4.145,1.211-6.594,0.999s-4.777-1.421-6.982-3.626c-1.784-1.785-2.919-3.584-3.406-5.4
					c-0.489-1.819-0.481-3.692,0.025-5.621c0.499-1.93,1.36-3.958,2.578-6.084c1.215-2.125,2.359-4.076,3.429-5.861l36.155-59.897
					c2.075-3.506,3.844-5.989,5.303-7.448c1.85-1.848,4.056-2.758,6.619-2.724c2.562,0.03,4.801,1.005,6.716,2.918
					c2.627,2.627,3.551,5.241,2.774,7.833c-0.78,2.596-2.435,5.842-4.967,9.734l-32.309,50.992l49.438-28.514
					c3.766-2.205,6.734-3.779,8.906-4.723c2.174-0.938,4.525-1.278,7.056-1.018c2.53,0.258,4.995,1.588,7.397,3.99
					c2.432,2.433,3.727,4.914,3.892,7.443c0.162,2.531-0.195,4.752-1.071,6.666c-0.875,1.916-2.482,4.918-4.816,9.002
					l-28.418,49.535l50.995-32.309c2.628-1.717,4.759-2.992,6.398-3.817c1.639-0.829,3.44-1.234,5.402-1.22
					c1.962,0.018,3.884,0.965,5.767,2.848c1.882,1.88,2.854,4.104,2.92,6.666c0.062,2.564-0.844,4.783-2.728,6.668
					c-1.329,1.328-3.811,3.097-7.445,5.303l-59.898,36.154c-4.055,2.433-7.104,4.135-9.147,5.109
					c-2.046,0.975-4.274,1.387-6.691,1.24c-2.414-0.146-4.792-1.386-7.127-3.723c-2.209-2.207-3.423-4.527-3.651-6.959
					c-0.228-2.432,0.089-4.598,0.949-6.496C322.296,233.134,323.927,230.045,326.329,225.761z"/>
				<path fill="#F4C342" d="M326.559,246.065c-1.639-1.637-2.51-3.229-2.663-4.859c-0.173-1.844,0.043-3.402,0.658-4.76
					c0.813-1.799,2.414-4.828,4.76-9.013l37.511-65.202l-65.403,37.348c-4.012,2.259-6.997,3.833-8.854,4.667
					c-1.419,0.641-3.02,0.872-4.897,0.71c-1.635-0.141-3.223-1.003-4.855-2.636c-1.346-1.345-2.193-2.647-2.521-3.866
					c-0.334-1.249-0.324-2.513,0.03-3.865c0.423-1.633,1.175-3.395,2.238-5.25c1.204-2.107,2.337-4.039,3.396-5.807l36.148-59.891
					c2.405-4.061,3.935-5.934,4.793-6.792c1.197-1.197,2.518-1.745,4.156-1.726c1.673,0.023,3.052,0.633,4.339,1.918
					c2.495,2.496,2.073,3.904,1.916,4.435c-0.684,2.272-2.218,5.25-4.557,8.849l-32.331,51.026l4.602,4.796l49.438-28.516
					c3.651-2.137,6.523-3.662,8.558-4.546c1.638-0.706,3.388-0.954,5.345-0.753c1.715,0.176,3.508,1.188,5.326,3.006
					c1.813,1.812,2.787,3.579,2.897,5.247c0.124,1.941-0.135,3.632-0.77,5.021c-0.822,1.796-2.396,4.733-4.676,8.727l-28.413,49.53
					l4.801,4.594l50.993-32.309c2.563-1.678,4.604-2.897,6.106-3.656c1.161-0.584,2.412-0.862,3.832-0.852
					c1.026,0.01,2.162,0.631,3.377,1.846c1.267,1.266,1.875,2.642,1.919,4.335c0.039,1.62-0.509,2.943-1.727,4.159
					c-0.776,0.777-2.587,2.239-6.801,4.797l-59.893,36.152c-3.938,2.362-6.918,4.027-8.849,4.947
					c-1.529,0.729-3.168,1.027-5.01,0.915C329.928,248.698,328.273,247.781,326.559,246.065z"/>
			</g>
		</g>
	</g>
	<g id="link_plus">
	</g>
	<g id="website__x26__lock">
	</g>
	<g id="video">
	</g>
	<g id="maginifier__x26__target">
	</g>
	<g id="website__x26__setting_1_">
	</g>
	<g id="website__x26__code">
	</g>
	<g id="SEO_tag">
	</g>
	<g id="website__x26__wrench">
	</g>
	<g id="crown">
	</g>
	<g id="eye">
	</g>
	<g id="website__x26__clock">
	</g>
	<g id="spider">
	</g>
	<g id="website__x26__medal">
	</g>
	<g id="graph">
	</g>
</g>
<g id="Finance__x2F__Money">
	<g id="diamond">
	</g>
	<g id="calculating">
	</g>
	<g id="calculator">
	</g>
	<g id="auction_hammer">
	</g>
	<g id="bag_of_money">
	</g>
	<g id="piggy_bank">
	</g>
	<g id="bank">
	</g>
	<g id="umbrella__x26__coins">
	</g>
	<g id="safe">
	</g>
	<g id="treasure">
	</g>
	<g id="cash__x26__card">
	</g>
	<g id="coins__x26__cash">
	</g>
	<g id="coins__x26__card">
	</g>
	<g id="briefcase">
	</g>
	<g id="cash">
	</g>
</g>
<g id="E-Commerce__x2F__Shopping">
	<g id="New_Symbol">
	</g>
	<g id="mobile__x26__finger">
	</g>
	<g id="price_tag">
	</g>
	<g id="website__x26__magnifier">
	</g>
	<g id="hand_to_ahnd_delivery">
	</g>
	<g id="hand__x26__credit_card">
	</g>
	<g id="hand__x26__iPad">
	</g>
	<g id="empty_basket">
	</g>
	<g id="full_basket">
	</g>
	<g id="trolley">
	</g>
	<g id="wallet">
	</g>
	<g id="truck">
	</g>
	<g id="delivery">
	</g>
	<g id="gift">
	</g>
	<g id="hand__x26__shopping_bag">
	</g>
	<g id="iMac_with_products">
	</g>
	<g id="laptop_store">
	</g>
	<g id="shopping_bag_with_mouse">
	</g>
	<g id="mobile_store">
	</g>
	<g id="store">
	</g>
	<g id="laptop_with_money">
	</g>
</g>
<g id="Strategy">
	<g id="money_palnt">
	</g>
	<g id="contract">
	</g>
	<g id="trophy">
	</g>
	<g id="graph_paper">
	</g>
	<g id="competition">
	</g>
	<g id="checklist">
	</g>
	<g id="megaphone">
	</g>
	<g id="paper_airplane">
	</g>
	<g id="mission_1">
	</g>
	<g id="graph_board">
	</g>
	<g id="mission_2">
	</g>
	<g id="strategy">
	</g>
	<g id="target">
	</g>
	<g id="partnership">
	</g>
	<g id="chess">
	</g>
</g>
</svg>
