<svg xmlns="http://www.w3.org/2000/svg" viewBox="0 0 130 107.24"><defs><style>.cls-1{fill:#9de8f7;}</style></defs><title>WeTransfer</title><g id="Layer_2" data-name="Layer 2"><g id="Layer_1-2" data-name="Layer 1"><path class="cls-1" d="M117,50.5c-.23,0-.44,0-.67,0A20.35,20.35,0,0,0,88.65,24.79a34.9,34.9,0,0,0-68.3,10.1c0,.34,0,.68,0,1h0a20.35,20.35,0,0,0,0,40.69H50.69v9.77H39.76a1.4,1.4,0,0,0-1,2.39l18.09,18.09a1.4,1.4,0,0,0,2,0L76.92,88.75a1.4,1.4,0,0,0-1-2.39H65V66.82H54.07a1.4,1.4,0,0,1-1-2.39L71.16,46.35a1.4,1.4,0,0,1,2,0L91.23,64.43a1.4,1.4,0,0,1-1,2.39H79.31v9.77H117a13,13,0,0,0,0-26.09Z"/></g></g></svg>