<?xml version="1.0" encoding="utf-8"?>
<!-- Generator: Adobe Illustrator 23.0.3, SVG Export Plug-In . SVG Version: 6.00 Build 0)  -->
<svg version="1.1" id="Ebene_1" xmlns="http://www.w3.org/2000/svg" xmlns:xlink="http://www.w3.org/1999/xlink" x="0px" y="0px"
	 viewBox="0 0 500 500" style="enable-background:new 0 0 500 500;" xml:space="preserve">
<style type="text/css">
	.st0{display:none;}
	.st1{display:inline;}
	.st2{fill:#002645;}
	.st3{fill:#003960;}
	.st4{fill:#001828;}
	.st5{fill:#00173D;}
	.st6{fill:#002060;}
	.st7{fill:#FFC000;}
	.st8{fill:#EFB63D;}
	.st9{fill:#FFFFFF;}
	.st10{display:inline;fill:#002645;}
</style>
<g id="file" class="st0">
	<g class="st1">
		<path class="st2" d="M418.7,312.9l-16.5-9.3l0,0l-5.7-3.2V67.9c0-3.7-2.7-6.9-6.3-7.5L110,13.9c-2.9-0.5-5.5,1.7-5.5,4.7v379
			c0,5.2,3.6,9.7,8.7,10.9l265.7,61.9c8.6,2,16.8-4.1,17.6-12.6l5-0.6l15.7-1.5c2-0.2,3.5-1.8,3.5-3.8V316.2
			C420.7,314.9,419.9,313.6,418.7,312.9z"/>
		<path class="st2" d="M390.6,60.4L110.4,13.9c-2.9-0.5-5.5,1.7-5.5,4.7v379.5c0,4.9,3.4,9.2,8.2,10.4l265.5,61.8l0.6-170.2
			c0-2,0.9-3.9,2.4-5.2l15.3-13v-214C396.9,64.2,394.2,61.1,390.6,60.4z"/>
	</g>
	<g class="st1">
		<path class="st2" d="M418.7,312.9l-16.5-9.3l0,0l-5.7-3.2V67.9c0-3.7-2.7-6.9-6.3-7.5L110,13.9c-2.9-0.5-5.5,1.7-5.5,4.7v379
			c0,5.2,3.6,9.7,8.7,10.9l265.7,61.9c8.6,2,16.8-4.1,17.6-12.6l5-0.6l15.7-1.5c2-0.2,3.5-1.8,3.5-3.8V316.2
			C420.7,314.9,419.9,313.6,418.7,312.9z"/>
		<path class="st3" d="M390.6,60.4L110.4,13.9c-2.9-0.5-5.5,1.7-5.5,4.7v379.5c0,4.9,3.4,9.2,8.2,10.4l265.5,61.8l0.6-170.2
			c0-2,0.9-3.9,2.4-5.2l15.3-13v-214C396.9,64.2,394.2,61.1,390.6,60.4z"/>
	</g>
</g>
<g id="Converter">
	<path class="st4" d="M426,267.7l-13.4-7.6l0,0l-4.6-2.6V68.3c0-3-2.2-5.6-5.2-6.1l-228-37.9c-2.3-0.4-4.5,1.4-4.5,3.8v308.4
		c0,4.2,2.9,7.9,7.1,8.9l216.2,50.3c7,1.6,13.6-3.3,14.3-10.3l4.1-0.5l12.8-1.2c1.6-0.2,2.8-1.5,2.8-3.1V270.4
		C427.5,269.2,426.9,268.2,426,267.7z"/>
	<path class="st4" d="M393.5,257.1c0-1.6,0.7-3.2,2-4.2l12.4-10.6v-174c0-3-2.2-5.6-5.2-6.1l-228-37.9c-2.3-0.4-4.5,1.4-4.5,3.8
		v308.8c0,4,2.8,7.5,6.7,8.4l216,50.3L393.5,257.1z"/>
	<path class="st5" d="M374.2,293.5l-13.4-7.6l0,0l-4.6-2.6V94.1c0-3-2.2-5.6-5.2-6.1L123,50.2c-2.3-0.4-4.5,1.4-4.5,3.8v308.4
		c0,4.2,2.9,7.9,7.1,8.9l216.2,50.3c7,1.6,13.6-3.3,14.3-10.3l4.1-0.5l12.8-1.2c1.6-0.2,2.8-1.5,2.8-3.1V296.2
		C375.7,295,375.1,294,374.2,293.5z"/>
	<path class="st5" d="M341.7,282.9c0-1.6,0.7-3.2,2-4.2l12.4-10.6v-174c0-3-2.2-5.6-5.2-6.1L123,50.2c-2.3-0.4-4.5,1.4-4.5,3.8
		v308.8c0,4,2.8,7.5,6.7,8.4l216,50.3L341.7,282.9z"/>
	<path class="st6" d="M317,320.2l-13.4-7.6l0,0L299,310V120.9c0-3-2.2-5.6-5.2-6.1L65.8,77c-2.3-0.4-4.5,1.4-4.5,3.8v308.4
		c0,4.2,2.9,7.9,7.1,8.9l216.2,50.3c7,1.6,13.6-3.3,14.3-10.3l4.1-0.5l12.8-1.2c1.6-0.2,2.8-1.5,2.8-3.1V322.9
		C318.6,321.8,318,320.8,317,320.2z"/>
	<path class="st6" d="M284.5,309.7c0-1.6,0.7-3.2,2-4.2l12.4-10.6v-174c0-3-2.2-5.6-5.2-6.1L65.8,77c-2.3-0.4-4.5,1.4-4.5,3.8v308.8
		c0,4,2.8,7.5,6.7,8.4l216,50.3L284.5,309.7z"/>
	<g>
		<path class="st7" d="M106.5,336.2l-22.1-5.1v9.5l18.4,4.2v9.2l-18.4-4.2v13.5L74.3,361v-41.5l32.3,7.4v9.3L106.5,336.2
			L106.5,336.2z"/>
		<path class="st7" d="M122.7,372.1l-10.2-2.3v-41.5l10.2,2.3V372.1z"/>
		<path class="st7" d="M141.3,367.1l22.1,5.1v9.3l-32.3-7.4v-41.5l10.2,2.3V367.1z"/>
		<path class="st7" d="M200.3,348.4v9.3l-22.1-5.1v7.1l18.4,4.2v8.7l-18.4-4.2v7.1l22.1,5.1v9.3l-32.3-7.4V341L200.3,348.4z"/>
		<path class="st7" d="M93.7,386.9c-2,2.9-5.7,4.4-10.5,3.4c-7-1.6-12.2-7.9-12.2-14.4c0-6.1,5.1-10.1,12.2-8.5
			c4.8,1.1,8.6,4.2,10.6,7.9l-4.6,1.6c-1.1-2.3-3.1-4.1-6-4.7c-3.9-0.9-6.7,1.3-6.7,4.9c0,3.5,2.7,7.2,6.7,8.1
			c2.8,0.6,4.8-0.3,5.9-2L93.7,386.9z"/>
		<path class="st7" d="M118.2,386.8c0,6.3-5.2,10.3-11.6,8.8S95,387.8,95,381.5s5.2-10.3,11.6-8.8S118.2,380.5,118.2,386.8z
			 M100,382.6c0,3.6,3,7.2,6.6,8s6.6-1.4,6.6-5s-3-7.2-6.6-8C103,376.8,100,379.1,100,382.6z"/>
		<path class="st7" d="M143.7,403.7l-5.4-1.2l-11.4-16.1v13.5l-5.4-1.2v-22.1l5.4,1.2l11.4,16.1v-13.5l5.4,1.2V403.7z"/>
		<path class="st7" d="M162.1,407.9l-5.9-1.4l-9.9-24.4l6,1.4l7,17.4l6.9-14.2l6,1.4L162.1,407.9z"/>
		<path class="st7" d="M191.9,392.6v4.9l-11.8-2.7v3.8l9.8,2.3v4.6l-9.8-2.3v3.8l11.8,2.7v4.9l-17.2-3.9v-22.1L191.9,392.6z"/>
		<path class="st7" d="M215,406.2c0,3.2-1.6,5.5-4,6.2l4.6,7.7l-6.7-1.5l-3.4-6.3l-4-0.9v5.5l-5.4-1.2v-22.1l10.9,2.5
			C211.6,397.1,215,401.4,215,406.2z M201.5,399.8v6.7l4.7,1.1c1.8,0.4,3.3-0.8,3.3-2.6c0-1.8-1.5-3.7-3.3-4.1L201.5,399.8z"/>
		<path class="st7" d="M238.6,408.2l-8-1.8v17.2l-5.5-1.3v-17.2l-8-1.8v-4.9l21.4,4.9v4.9L238.6,408.2L238.6,408.2z"/>
		<path class="st7" d="M258.4,407.8v4.9l-11.8-2.7v3.8l9.8,2.3v4.6l-9.8-2.3v3.8l11.8,2.7v4.9l-17.2-3.9v-22.1L258.4,407.8z"/>
		<path class="st7" d="M281.6,421.4c0,3.2-1.6,5.5-4,6.2l4.6,7.7l-6.7-1.5l-3.4-6.3l-4-0.9v5.5l-5.4-1.2v-22.1l10.9,2.5
			C278.1,412.3,281.6,416.6,281.6,421.4z M268.1,415v6.7l4.7,1.1c1.8,0.4,3.3-0.8,3.3-2.6c0-1.8-1.5-3.7-3.3-4.1L268.1,415z"/>
	</g>
	<g transform="matrix(0 .01743-.01743 0 19 2.998)">
		<path class="st8" d="M20366.5-13096.2l-139-131.4c-49.2-46.3-130.2-22.1-145.8,43.4l-193.1,811.5
			c-15.6,65.9,45.8,123.9,110.5,104.4l799.1-238.2c64.8-19.2,84.5-101.4,35.3-148.1l-115.4-109.1c106.6-47.7,219.5-81,337.8-99.4
			c217-34.1,440.3-14.6,646.5,56.7c173.7,60,334.8,156.5,470.6,281c34.3,31.3,87.1,31,120.6-1.3l202.7-195.1
			c36.2-34.9,35.7-92.9-1-127.6c-184.4-172.7-405.1-306.2-643.3-388.9c-276.5-95.8-576-121.9-867-76.3
			C20764.3-13279.6,20557.1-13206.3,20366.5-13096.2"/>
		<path class="st8" d="M22118.8-11498.2l139,131.4c49.2,46.4,130.2,22.1,145.8-43.4l193.1-811.5c15.6-65.9-45.8-123.9-110.5-104.4
			l-799.1,238.2c-64.8,19.2-84.5,101.4-35.3,148.1l115.4,109.1c-106.6,47.7-219.5,81-337.8,99.4c-217,34.1-440.3,14.6-646.5-56.7
			c-173.7-60-334.8-156.5-470.6-281c-34.3-31.3-87.1-31-120.6,1.3l-202.7,195.1c-36.2,34.9-35.7,92.9,1,127.6
			c184.4,172.7,405.1,306.2,643.3,388.9c276.5,95.8,576,121.9,867,76.3C21721-11314.8,21928.3-11388.1,22118.8-11498.2"/>
	</g>
</g>
<g id="virus_1_" class="st0">
	<g id="virus" class="st1">
		<g>
			<path class="st9" d="M227,249.6c-0.4-0.5-1-0.8-1.6-0.9c-1.4-0.3-2.8-0.3-4.1-0.1c-5.6,0.8-9.7,5.3-9.7,11.4
				c0,7.6,6.2,14.9,13.8,16.2c1.2,0.2,2.3,0.3,3.4,0.2c5.9-0.5,10.3-5.1,10.3-11.5c0-0.6-0.2-1.2-0.7-1.7L227,249.6z M225.4,271.7
				c-5.1-0.9-9.3-5.8-9.3-10.9c0-3.2,1.6-5.7,4-6.9c1.3-0.7,2.8-1,4.4-0.8l10.1,11.9c-0.3,3.3-2.5,5.8-5.4,6.6
				C228,271.9,226.7,271.9,225.4,271.7z"/>
			<path class="st9" d="M278,271.7c0-7.6-6.2-14.9-13.8-16.2c-0.2,0-0.4,0-0.6,0c-0.3,0-0.7,0.2-0.9,0.4l-11.5,9.5
				c-0.4,0.3-0.7,0.9-0.7,1.5c0,7.6,6.2,14.9,13.8,16.2c2.1,0.4,4.2,0.2,6-0.3C274.8,281.3,278,277.1,278,271.7z M264.2,278.5
				c-4.8-0.9-8.8-5.3-9.3-10.1L265,260c4.7,1.3,8.4,5.9,8.4,10.7c0,4-2.5,7-6.1,7.7C266.4,278.7,265.4,278.7,264.2,278.5z"/>
			<path class="st9" d="M236,212.4c-7.7,0.1-14.9,2.1-21,5.9l-10.2-12c-0.2-0.2-0.2-0.5-0.2-0.6s0-0.4,0.2-0.5l0,0
				c2.5-2.1,3.8-5.3,3.7-8.8c-0.1-3.6-1.7-7.1-4.4-10c-3-3.2-7-4.8-10.7-4.8c-2.2,0-4.4,0.7-6.2,2c-3.2,2.3-4.7,6.3-4.1,10.4
				c-0.6-0.2-1.2-0.3-1.8-0.4c-3.5-0.6-6.9,0.3-9.3,2.6c-4.3,4-4.4,11.3-0.2,16.9c1.2,1.6,2.6,2.9,4.1,3.9c1.6,1,3.3,1.7,5,2.1
				c0.2,0,0.3,0.1,0.5,0.1c2.4,0.4,4.8,0.1,6.8-0.8c0.8-0.4,1.5-0.8,2.1-1.3l0,0c0.2-0.1,0.3-0.1,0.5-0.1h0.1l0,0
				c0.1,0,0.4,0.1,0.6,0.3l11.2,13.2c-1.1,1.8-2.1,3.7-2.9,5.7c0,0.1-0.1,0.2-0.1,0.3c-1.2,3-2.1,6.1-2.6,9.4c0,0.1,0,0.1,0,0.2
				c-0.2,1.4-0.4,2.9-0.4,4.4c0,0.1,0,0.3,0,0.4c0,0.3,0,0.6,0,0.9c0,0.1,0,0.2,0,0.3v23.4v0.5c0,3.9,2.5,7.8,6.1,9.6l0,0
				c0.1,0.1,0.2,0.1,0.4,0.2c0.5,0.3,1.1,0.5,1.7,0.6l-13.2,10.9c-0.2,0.2-0.4,0.2-0.6,0.1l0,0c0,0-0.1,0-0.2,0
				c-0.1,0-0.3-0.1-0.4-0.3l0,0l0,0l0,0c-2.5-2.9-5.9-4.9-9.5-5.4s-6.8,0.5-9.2,2.8c-4.2,4.1-4.2,11.4,0.2,16.9
				c0.7,0.9,1.5,1.8,2.4,2.5c2.6,2.2,5.7,3.5,8.8,3.6c-0.6,4,0.9,8.4,4.1,11.9l0,0l0,0c0.1,0.1,0.2,0.2,0.2,0.3
				c0.1,0.1,0.1,0.1,0.2,0.2c0.1,0.1,0.1,0.1,0.2,0.2c0.1,0.1,0.2,0.2,0.3,0.3l0.1,0.1c0.3,0.3,0.6,0.5,0.9,0.7l0.1,0.1
				c0.3,0.2,0.6,0.5,0.9,0.7c1.8,1.2,3.7,1.9,5.6,2.3c3,0.5,6,0,8.4-1.7c2.7-1.9,4.3-4.9,4.4-8.4c0.1-3.5-1.2-7.2-3.7-10.1l0,0
				c-0.2-0.2-0.2-0.5-0.2-0.6s0-0.4,0.2-0.5l0.3-0.3l13.1-10.7c0.1-0.1,0.2-0.2,0.2-0.2l3.2-2.7v7.9c0,2.3,1.4,4.5,3.3,5.6
				c0.7,0.4,1.4,0.7,2.1,0.8l35.4,6.2c3,0.5,5.5-1.5,5.5-4.5V307l3.2,3.8c0.1,0.1,0.1,0.2,0.2,0.3l13.2,15.5l0.3,0.3
				c0.2,0.2,0.2,0.5,0.2,0.6s0,0.4-0.2,0.5l0,0c-2.5,2.1-3.8,5.3-3.7,8.8c0.1,3.6,1.7,7.1,4.4,10c2.4,2.5,5.4,4.1,8.4,4.6
				c0.6,0.1,1.1,0.2,1.7,0.2c2.5,0.1,4.9-0.5,6.8-2c3.2-2.3,4.7-6.3,4.1-10.4c1.5,0.5,3.1,0.7,4.6,0.6c2.5-0.1,4.8-1,6.6-2.7
				c4.3-4,4.4-11.3,0.2-16.9c-2.1-2.7-4.8-4.7-7.9-5.7c-0.4-0.1-0.9-0.3-1.3-0.3h-0.1c-2.9-0.6-5.7-0.2-8,1.1
				c-0.5,0.3-0.9,0.6-1.4,0.9l0,0c-0.2,0.2-0.4,0.2-0.6,0.1l0,0c-0.1,0-0.2-0.1-0.3-0.1c-0.1,0-0.2-0.1-0.2-0.2L285,300.5
				c4.6,0.4,8.1-2.9,8.1-7.5v-0.5v-23.4c0-0.1,0-0.2,0-0.3c0-0.3,0-0.6,0-0.9c0-0.2,0-0.3,0-0.5c-0.1-1.5-0.2-3-0.4-4.5
				c0-0.1,0-0.2,0-0.2c-0.5-3.5-1.4-7-2.6-10.4c0-0.1,0-0.2-0.1-0.3c-0.8-2.3-1.8-4.6-2.9-6.7l0,0l11.2-9.2c0.1,0,0.1-0.1,0.2-0.1
				c0.1-0.1,0.3,0,0.4,0l0,0c0.1,0,0.4,0.1,0.6,0.3l0,0c1.1,1.3,2.4,2.4,3.9,3.3c1.1,0.7,2.3,1.2,3.6,1.6l0,0l0,0
				c0.6,0.2,1.3,0.3,1.9,0.4c2.5,0.3,4.8,0,6.7-1c0.9-0.5,1.7-1,2.5-1.8c4.2-4.1,4.2-11.4-0.2-16.9c-2.7-3.5-6.6-5.6-10.4-6
				c-0.3,0-0.5,0-0.8-0.1c0.6-4-0.9-8.4-4.1-11.9c-2.4-2.6-5.4-4.2-8.5-4.8c-3-0.5-6,0-8.4,1.6c-2.7,1.9-4.3,4.9-4.4,8.4
				s1.2,7.2,3.7,10.1l0,0c0.2,0.2,0.2,0.5,0.2,0.6s0,0.4-0.2,0.5l-10.2,8.4c-6.1-5.9-13.3-10.5-21-13.3 M314.4,333.5
				c-2.6,2.4-6.7,2.4-10,0l-3.2-3.8l0,0l-0.3-0.4c-0.9-1-2.3-1.3-3.2-0.6c-0.9,0.7-0.9,2.1,0,3.2l3.6,4.2c1.4,3,1.3,6.2-0.4,8.4
				c0,0.1-0.1,0.1-0.1,0.2c-0.1,0.1-0.2,0.2-0.3,0.3c-0.1,0.1-0.1,0.1-0.2,0.2s-0.2,0.2-0.3,0.3c-0.2,0.1-0.3,0.3-0.5,0.4
				c-3.1,2.2-7.9,1.4-11-1.8c-0.7-0.8-1.3-1.6-1.8-2.5c-0.7-1.3-1-2.6-1.1-4c-0.1-2.3,0.8-4.4,2.4-5.7l0,0c1-0.8,1.5-2,1.5-3.4
				s-0.5-2.8-1.5-4l-0.1-0.1l-20-23.5v-2.1c0-0.6,0.5-0.9,1-0.8l9.6,1.7l16.3,19.2l0,0c0.1,0.1,0.1,0.2,0.2,0.2
				c0.1,0.1,0.1,0.1,0.2,0.2s0.2,0.2,0.2,0.2c0.1,0.1,0.1,0.1,0.2,0.2c0.9,0.7,1.9,1.2,2.9,1.4l0,0c1.4,0.2,2.7-0.1,3.7-0.9l0,0l0,0
				c1.6-1.3,3.6-1.8,5.8-1.4c0.1,0,0.2,0,0.3,0.1c2.3,0.5,4.4,1.9,6,3.9c1.9,2.5,2.4,5.5,1.7,8C315.8,331.7,315.2,332.7,314.4,333.5
				z M257.1,221.6c0.8,0.4,1.5,0.7,2.3,1.2l0.1,0.1c0.4,0.2,0.7,0.4,1.1,0.6l0,0c8.5,4.8,15.8,12.1,20.8,20.7c0,0.1,0.1,0.2,0.1,0.2
				c0.1,0.2,0.3,0.5,0.4,0.7c3.2,5.8,5.3,12.1,6.1,18.4c0,0.1,0,0.2,0,0.3c0,0.3,0.1,0.6,0.1,0.8c0,0.3,0.1,0.7,0.1,1
				c0,0.2,0,0.5,0,0.7s0,0.5,0,0.7c0,0.3,0,0.7,0,1c0,0.4,0,0.7,0,1.1v23.1c0,1.6-0.8,2.9-2.1,3.5c-0.7,0.3-1.5,0.4-2.4,0.3l-15-2.6
				c-1.1-0.2-2.2,0-3.1,0.4c0,0-0.1,0-0.1,0.1c-0.1,0.1-0.2,0.1-0.3,0.2c-1.2,0.8-2,2.2-2,3.9v3l0,0v13.3c0,0.3-0.2,0.6-0.4,0.8
				c-0.2,0.1-0.4,0.1-0.6,0.1l-5.1-0.9V306c0-1.2-1-2.4-2.2-2.6c-0.8-0.1-1.4,0.1-1.8,0.7c-0.2,0.3-0.4,0.7-0.4,1.2v8.1l-5.9-1v-8.1
				c0-1.2-1-2.4-2.2-2.6c-0.8-0.1-1.4,0.1-1.8,0.7c-0.2,0.3-0.4,0.7-0.4,1.2v8.1l-5.9-1v-8.1c0-1.2-1-2.4-2.2-2.6
				c-0.8-0.1-1.4,0.1-1.8,0.7c-0.2,0.3-0.4,0.7-0.4,1.2v8.1l-5.1-0.9c-0.6-0.1-1-0.6-1-1.2v-13.3l0,0v-3c0-3-2.5-5.9-5.5-6.4
				l-15-2.6c-2.5-0.4-4.6-2.8-4.6-5.4v-23.1c0-0.4,0-0.7,0-1.1c0-0.3,0-0.7,0-1c0-0.2,0-0.5,0-0.7s0-0.4,0-0.7s0.1-0.7,0.1-1
				s0.1-0.5,0.1-0.8c0-0.1,0-0.2,0-0.3c0.8-6,2.9-11.6,6.1-16.3c0.1-0.2,0.3-0.4,0.4-0.5c0-0.1,0.1-0.1,0.1-0.2
				c5-6.8,12.3-11.5,20.8-13.3c0,0,0,0,0.1,0c0.4-0.1,0.7-0.1,1.1-0.2c0.1,0,0.1,0,0.2,0c0.7-0.1,1.5-0.2,2.3-0.3 M214.3,298.6
				L214.3,298.6L201.8,309l-0.2,0.1c-1,0.8-1.5,2-1.5,3.4c0,0.9,0.2,1.8,0.6,2.6l0,0l0.1,0.1c0.1,0.1,0.1,0.2,0.2,0.3l0,0
				c0.1,0.1,0.2,0.3,0.3,0.4c0.1,0.2,0.2,0.3,0.4,0.4l0,0c1.6,1.9,2.5,4.3,2.4,6.6c-0.1,2.3-1.1,4.2-2.9,5.5c-3.1,2.2-7.9,1.3-11-2
				c-2.3-2.5-3.2-5.8-2.5-8.5l0,0c0-0.1,0-0.1,0-0.2c0.2-0.6,0.4-1.1,0.7-1.7l3.2-2.7l0,0l0.3-0.3c0.9-0.7,0.9-2.1,0-3.2
				c-0.9-1-2.3-1.3-3.2-0.6l-3.6,2.9c-2.9,1-6.4,0.1-8.9-2.3c0,0,0,0-0.1-0.1s-0.2-0.2-0.3-0.3c-0.1-0.1-0.2-0.2-0.3-0.3
				c-0.2-0.2-0.3-0.4-0.5-0.6c-2.8-3.5-2.8-8.4-0.1-11c1.5-1.5,3.7-2.1,6-1.8h0.1c2.3,0.4,4.4,1.6,6,3.5l0,0c1,1.2,2.3,1.9,3.7,2.2
				l0,0c1.4,0.2,2.7-0.1,3.7-0.9l16.3-13.4l9.6,1.7c0.6,0.1,1,0.6,1,1.2v2.1L214.3,298.6z M187.3,213.3L187.3,213.3L187.3,213.3
				L187.3,213.3L187.3,213.3c-1.4,1.2-3.2,1.7-5.1,1.5c-0.3,0-0.7-0.1-1-0.2c-2.3-0.5-4.4-1.9-6-3.9c-2.7-3.6-2.7-8.4,0.1-10.9
				c2.6-2.4,6.7-2.4,10,0l2.6,3.1c0.4,0.5,1,0.8,1.6,0.9c0.6,0.1,1.1,0,1.6-0.4c0.9-0.7,0.9-2.1,0-3.2l-0.5-0.6l0,0l-2.1-2.5
				c-1.8-3.7-1.1-7.6,1.8-9.7c2.7-1.9,6.7-1.6,9.7,0.7c0.4,0.3,0.8,0.7,1.2,1.1c1.8,1.8,2.8,4.1,2.9,6.5c0,0.6,0,1.2-0.1,1.7
				c-0.3,1.6-1.1,3-2.3,4l0,0c-1,0.8-1.5,2-1.5,3.4s0.5,2.8,1.5,4l5.4,6.4l4.5,5.3c-1.1,0.9-2.2,1.8-3.2,2.8
				c-1.1,1.1-2.2,2.3-3.2,3.5l-10.5-12.4c-1-1.2-2.3-1.9-3.7-2.2l0,0c-0.4-0.1-0.9-0.1-1.3-0.1C188.8,212.4,188,212.7,187.3,213.3z
				 M288,224.2c0.1-0.1,0.1-0.1,0.2-0.2c0.1,0,0.1-0.1,0.2-0.1l0.1-0.1c0.1-0.1,0.1-0.1,0.2-0.2c0-0.1,0.1-0.1,0.1-0.2
				c0.1-0.1,0.1-0.1,0.2-0.2c0.4-0.7,0.6-1.5,0.6-2.4c0-1.4-0.5-2.8-1.5-4l0,0c-1.3-1.6-2.2-3.4-2.4-5.3c-0.1-0.4-0.1-0.9-0.1-1.3
				c0.1-2.3,1.1-4.3,2.9-5.5c1.2-0.8,2.6-1.2,4-1.2c2.4,0,5,1.1,6.9,3.2c2.9,3.1,3.6,7.3,1.8,10.3l-2.6,2.2c-0.9,0.7-0.9,2.1,0,3.2
				c0.4,0.5,1,0.8,1.6,0.9c0.6,0.1,1.1,0,1.6-0.4l0.5-0.4l0,0l2.1-1.7c3.4-1.2,7.5,0.2,10,3.5c0.7,0.9,1.2,1.8,1.6,2.8
				c1,3,0.6,6.2-1.5,8.1c-1.5,1.5-3.7,2.1-6,1.8c-0.7-0.1-1.4-0.3-2.1-0.6c-1.5-0.6-2.9-1.6-4-2.9l0,0c-0.1-0.1-0.3-0.3-0.4-0.4
				c-0.1-0.1-0.2-0.2-0.4-0.3l0,0c-0.1-0.1-0.2-0.2-0.3-0.3l-0.1-0.1l0,0c-0.7-0.5-1.6-0.9-2.5-1l0,0c-1.4-0.2-2.7,0.1-3.7,0.9
				l-10.5,8.7c-1-1.6-2-3.1-3.2-4.6c-1-1.3-2.1-2.6-3.2-3.9l9.7-8L288,224.2z"/>
			<path class="st9" d="M247,219.7"/>
		</g>
	</g>
	<g id="Ebene_8" class="st1">
		<g>
			<g>
				<path class="st2" d="M38.1,434.2c12.5,14.6,32.9,18.2,45.4,8l78.6-64.1c-18.2-14.8-33.7-32.9-45.4-53l-78.6,64.1
					C25.6,399.4,25.6,419.5,38.1,434.2z"/>
				<path class="st2" d="M242.8,394.7c71,12.5,128.5-34.4,128.5-104.7s-57.5-137.5-128.5-150s-128.5,34.4-128.5,104.7
					S171.9,382.2,242.8,394.7z M146.5,250.3c0-52.7,43.2-87.9,96.4-78.5c53.1,9.4,96.4,59.8,96.4,112.5s-43.2,87.9-96.4,78.5
					C189.7,353.5,146.5,303,146.5,250.3z"/>
			</g>
		</g>
	</g>
	<g id="Ebene_9" class="st1">
		<path class="st9" d="M273.9,216.6l-15.2-26.3c-3.3-5.7-8.9-9.7-14.9-10.8c-0.8-0.1-1.5-0.2-2.3-0.3c-5.2-0.3-9.8,1.8-12.7,5.8
			l-15.2,21"/>
		<path class="st9" d="M213.6,205.9l-39.5,54.4l-10.2,14c-3.5,4.8-3.8,11.7-0.7,18s9.1,10.9,15.6,12l129.7,22.9
			c4.5,0.8,8.7-0.1,11.9-2.5c1.5-1.1,2.7-2.4,3.7-4c3.1-5.2,2.9-12.1-0.7-18.2l-32.9-56.9l-16.7-29"/>
		<path class="st3" d="M243.8,194.7c0.5,0.1,1.5,0.4,2.1,1.5l64.9,112.2c0.7,1.2,0.4,2.2,0.1,2.6c0,0.1-0.1,0.1-0.1,0.2
			c-0.3,0.4-1,1-2.1,0.8L179,289.1c-1.3-0.2-2-1.2-2.2-1.7c-0.3-0.5-0.6-1.6,0.1-2.6l64.9-89.3c0.1-0.1,0.2-0.2,0.3-0.3
			C242.5,194.6,243.3,194.6,243.8,194.7z"/>
		<path class="st9" d="M243.9,273.6L243.9,273.6c-0.1,0-0.1,0-0.1,0h-0.1c-4.2-0.7-7.6,2.1-7.6,6.3c0,4.2,3.4,8.2,7.6,8.9l0,0l0,0
			l0,0l0,0c4.2,0.7,7.6-2,7.6-6.2C251.4,278.4,248.1,274.4,243.9,273.6z"/>
		<path class="st9" d="M236.2,228.1v31.7c0,4.2,3.4,8.2,7.6,9c1.8,0.3,3.5,0,4.8-0.9c1.7-1.1,2.8-3,2.8-5.4v-31.7
			c0-4.2-3.4-8.2-7.6-9c-1.8-0.3-3.5,0-4.8,0.9C237.2,223.8,236.2,225.7,236.2,228.1z"/>
	</g>
	<g class="st1">
		<path class="st9" d="M192.5,91.8l-9.1-1.6l-15.2-36.6l9.2,1.6L188,81.3L198.6,59l9.2,1.6L192.5,91.8z"/>
		<path class="st9" d="M219.9,96.6l-8.3-1.5V61.3l8.3,1.5V96.6z"/>
		<path class="st9" d="M255.7,81.7c0,4.9-2.4,8.6-6.1,9.9l7.1,11.5l-10.3-1.8l-5.2-9.3l-6.1-1.1v8.4l-8.3-1.5V63.9l16.6,2.9
			C250.4,68.1,255.7,74.4,255.7,81.7z M235.1,73v10.3l7.1,1.3c2.8,0.5,5.1-1.4,5.1-4.3c0-2.8-2.3-5.5-5.1-6L235.1,73z"/>
		<path class="st9" d="M293.3,92.2c0,11.2-7.2,16.7-16.8,15c-9.8-1.7-16.4-9.7-16.4-20.9V69.8l8.3,1.5v16.5c0,6.5,2.8,10.9,8.1,11.8
			c5.2,0.9,8.4-2.4,8.4-8.9V74.2l8.4,1.5V92.2z"/>
		<path class="st9" d="M325.4,92l-8.2-1.5c0-1.7-2-4.3-5.6-5c-2.5-0.4-5.5,0.1-5.5,2.1c0,1.6,2.3,2.7,7.1,4.8
			c5.4,2.3,13.1,5.5,13.1,13c0,6.5-5.8,9.5-13.8,8.1c-10.8-1.9-15.3-9.9-15.3-15.1l8.2,1.5c0,0,0.7,5.5,7.5,6.7
			c3.7,0.7,5.1-0.7,5.1-2.1c0-2.1-2.9-3.4-6.1-4.7c-5.2-2.1-14.2-5.6-14.2-13.1c0-6.2,6.2-9.7,14-8.3
			C320.7,79.9,325.4,86.8,325.4,92z"/>
		<path class="st9" d="M185.5,102l-5.1-0.9c0-1.1-1.3-2.7-3.5-3.1c-1.5-0.3-3.4,0.1-3.4,1.3c0,1,1.4,1.7,4.4,3
			c3.4,1.5,8.1,3.4,8.1,8.1c0,4-3.6,5.9-8.6,5c-6.7-1.2-9.5-6.1-9.5-9.4l5.1,0.9c0,0,0.4,3.4,4.7,4.2c2.3,0.4,3.1-0.4,3.1-1.3
			c0-1.3-1.8-2.1-3.8-2.9c-3.2-1.3-8.8-3.5-8.8-8.2c0-3.8,3.8-6,8.7-5.2C182.5,94.4,185.5,98.7,185.5,102z"/>
		<path class="st9" d="M209.8,115.6c-1.9,2.8-5.5,4.5-10,3.7c-6.7-1.2-11.6-6.9-11.6-13.1c0-5.9,4.9-9.9,11.6-8.7
			c4.6,0.8,8.2,3.5,10.1,7l-4.4,1.7c-1-2.1-3-3.7-5.7-4.2c-3.7-0.7-6.4,1.6-6.4,5c0,3.3,2.6,6.8,6.4,7.4c2.6,0.5,4.6-0.5,5.6-2.2
			L209.8,115.6z"/>
		<path class="st9" d="M227.9,120.6l-10.3-1.8l-1.4,3l-5.5-1l9.2-19.5l5.8,1l9.2,22.7l-5.5-1L227.9,120.6z M226.1,116.1l-3.3-8.5
			l-3.4,7.3L226.1,116.1z"/>
		<path class="st9" d="M258.4,129.3l-5.2-0.9l-10.8-14.8v12.9l-5.2-0.9v-21.1l5.2,0.9l10.8,14.8v-12.9l5.2,0.9V129.3z"/>
		<path class="st9" d="M284,133.8l-5.2-0.9L268,118v12.9l-5.2-0.9v-21.1l5.2,0.9l10.8,14.8v-12.9l5.2,0.9V133.8z"/>
		<path class="st9" d="M304.9,116.4v4.7l-11.2-2v3.6l9.4,1.7v4.4l-9.4-1.7v3.6l11.2,2v4.7l-16.4-2.9v-21.1L304.9,116.4z"/>
		<path class="st9" d="M327,128.2c0,3-1.5,5.3-3.8,6.2l4.4,7.1l-6.4-1.1l-3.2-5.8l-3.8-0.7v5.2l-5.2-0.9v-21.1l10.4,1.8
			C323.7,119.7,327,123.6,327,128.2z M314.2,122.7v6.4l4.4,0.8c1.8,0.3,3.2-0.9,3.2-2.7c0-1.7-1.4-3.4-3.1-3.7L314.2,122.7z"/>
	</g>
</g>
<g id="lock" class="st0">
	<g class="st1">
		<path class="st2" d="M61.1,413.4c11.8,27.8,153,41.5,159,36l2-132.6c-21.8,8.3-159.9-27.3-161-28.6L61.1,413.4z"/>
		<path class="st2" d="M218.7,297.2c0-7.8,0-24.1,0-33.9c0-13.2-8-73.5-72.8-75.2c-56.7-2-64.8,37.3-65.8,47.3c-0.8,8-2,32-2.5,41.4
			c-4.5,3-13.3,8.8-15.8,10.1c-0.6,0.4-0.9,1.2-0.4,1.8c7.5,11.2,130.5,51.1,160.8,27.9l-2,132.6l12.5-8.1c1-0.6,1.5-1.7,1.6-2.8
			l1.1-133.8C235,302.7,228.6,300.1,218.7,297.2z M144.7,220.7c32.3,2.5,41.6,29.3,41.2,40.7c-0.3,8.6-0.2,22.2-0.1,28.2
			c-24.9-5.1-54.1-9.9-75.6-12.6c0-9.2,0-25.2,0-28.9C110.2,241.5,117,217.5,144.7,220.7z"/>
		<g>
			<path class="st2" d="M140,363.4c0-8.9-6.6-16.1-14.7-16.1s-14.7,7.2-14.7,16.1c0,5.5,2.5,10.3,6.4,13.2c0.7,0.5,1.1,1.4,1.1,2.3
				l-1.6,22.9l17.4,3l-1.2-26c0-0.9,0.4-1.8,1.1-2.3C137.6,373.6,140,368.8,140,363.4z"/>
		</g>
	</g>
	<g class="st1">
		<path class="st3" d="M61.1,413.4c11.8,27.8,153,41.5,159,36l2-132.6c-21.8,8.3-159.9-27.3-161-28.6L61.1,413.4z"/>
		<path class="st2" d="M218.7,297.2c0-7.8,0-24.1,0-33.9c0-13.2-8-73.5-72.8-75.2c-56.7-2-64.8,37.3-65.8,47.3c-0.8,8-2,32-2.5,41.4
			c-4.5,3-13.3,8.8-15.8,10.1c-0.6,0.4-0.9,1.2-0.4,1.8c7.5,11.2,130.5,51.1,160.8,27.9l-2,132.6l12.5-8.1c1-0.6,1.5-1.7,1.6-2.8
			l1.1-133.8C235,302.7,228.6,300.1,218.7,297.2z M144.7,220.7c32.3,2.5,41.6,29.3,41.2,40.7c-0.3,8.6-0.2,22.2-0.1,28.2
			c-24.9-5.1-54.1-9.9-75.6-12.6c0-9.2,0-25.2,0-28.9C110.2,241.5,117,217.5,144.7,220.7z"/>
		<g>
			<path class="st2" d="M140,363.4c0-8.9-6.6-16.1-14.7-16.1s-14.7,7.2-14.7,16.1c0,5.5,2.5,10.3,6.4,13.2c0.7,0.5,1.1,1.4,1.1,2.3
				l-1.6,22.9l17.4,3l-1.2-26c0-0.9,0.4-1.8,1.1-2.3C137.6,373.6,140,368.8,140,363.4z"/>
		</g>
	</g>
</g>
<g id="scirssor" class="st0">
	<g class="st1">
		<g>
			<path class="st2" d="M83.5,173.2c-17.1,5.9-23,26.5-13.1,45.9l34.2,67l20.7-31L83.5,173.2z"/>
		</g>
	</g>
	<g class="st1">
		<g>
			<path class="st2" d="M187.6,197.2L91.2,341.9c-1.1-0.4-2.3-0.7-3.4-1C66.4,336,49,349.3,49,370.7s17.4,42.8,38.8,47.7
				c21.4,4.9,38.8-8.4,38.8-29.8c0-7-1.9-14-5.2-20.5l79.3-119C210.5,234.3,204.7,211.1,187.6,197.2z M87.8,400.5
				c-11.5-2.7-20.9-14.2-20.9-25.7s9.4-18.7,20.9-16.1s20.9,14.2,20.9,25.7C108.7,396,99.3,403.2,87.8,400.5z"/>
		</g>
	</g>
	<g class="st1">
		<g>
			<path class="st2" d="M183.2,362.9c-1.2-0.3-2.3-0.5-3.4-0.6l-13.3-26.1l-20.7,31l3.8,7.4c-3.3,4.9-5.2,11.1-5.2,18.1
				c0,21.4,17.4,42.8,38.8,47.7c21.4,4.9,38.8-8.4,38.8-29.8S204.6,367.9,183.2,362.9z M183.2,422.6c-11.5-2.7-20.9-14.2-20.9-25.7
				s9.4-18.7,20.9-16.1c11.5,2.7,20.9,14.2,20.9,25.7C204.1,418,194.7,425.2,183.2,422.6z"/>
		</g>
	</g>
</g>
<g id="zip" class="st0">
	<path class="st10" d="M340.7,52.2L320.3,209c-0.2-0.1-0.5-0.2-0.7-0.3s-0.5,0-0.7-0.1L299.5,45.4L255.8,38l24.4,207.5v202
		l78.5,18.3V264.1l24.4-204.8L340.7,52.2z M329.6,266.4l-3.3-17.2l-2.8-0.7v-24.7c4.6,3.8,7.9,11.7,7.9,20.1v4.5l-0.1,0.6l0.1,0.1
		v7.8C331.3,260.5,330.6,263.7,329.6,266.4z M295.9,85.8l1.7,14L290,98l-1.6-13.4l7.6,1.8v-0.6H295.9z M299.3,113.2l1.6,13.4
		l-7.7-1.8l-1.6-13.4L299.3,113.2z M302.6,139.9l1.6,13.4l-7.7-1.8l-1.6-13.4L302.6,139.9z M305.8,166.6l1.6,13.4l-7.6-1.8v0.6
		l-1.7-14L305.8,166.6z M307.7,251.4v-13c0-8.4,3.3-14.8,7.9-16.4v24.7l-2.8-0.7l-3.3,15.7C308.3,258.5,307.7,254.9,307.7,251.4z
		 M311.7,310.6v-18.4l6.8-31.9l2.2,0.5l6.8,35.1v18.4L311.7,310.6z M323.4,417.2l-7.9-1.9v-13l7.9,1.9V417.2z M323.4,391.3l-7.9-1.9
		v-13l7.9,1.9V391.3z M323.4,365.3l-7.9-1.9v-13l7.9,1.9V365.3z M315.6,428.3l7.9,1.9v13l-7.9-1.9V428.3z M323.4,339.4l-7.9-1.9v-13
		l7.9,1.9V339.4z M342.5,162.4l-7.7-1.8l1.6-12.6l7.7,1.8L342.5,162.4z M340.9,174.9l-1.7,13.2v-0.6l-7.6-1.8l1.6-12.6L340.9,174.9z
		 M345.8,137.2l-7.7-1.8l1.6-12.6l7.7,1.8L345.8,137.2z M349,112l-7.7-1.8L343,97v0.6l7.6,1.8L349,112z M353.9,74.3l-1.6,12.6
		l-7.7-1.8l1.6-12.6L353.9,74.3z M329.9,198.3l7.7,1.8l-3.1,23.9c-1.8-4-4-7.4-6.6-10.1L329.9,198.3z M304.5,216.9l-3.1-25.4
		l7.7,1.8l2,16.7C308.6,211.4,306.4,213.8,304.5,216.9z M294.4,73.1l-7.7-1.8l-1.6-13.4l7.7,1.8L294.4,73.1z M265.4,53.2L277,56
		l22.8,186.4v7.1c0,9.4,2.5,18.8,6.7,25.8l-2.7,12.9v33.5l3.9,0.9v116.7l-19.6-4.7v-188L265.4,53.2z M351,260.4l-0.1,189.3
		l-19.6-4.7V328.3l3.9,0.9v-33.5l-2.7-14.2l0,0c4.2-5.2,6.6-13.4,6.6-22.7v-7.1L362,76.2l11.7,2.8L351,260.4z"/>
</g>
<g id="pdf" class="st0">
	<g class="st1">
		<path class="st9" d="M198.3,116.1c0,15.8-10.2,29.4-31.1,25.7l-17.8-3.1v18.2l-19.8-3.5V73l37.7,6.6
			C188.3,83.3,198.3,100.5,198.3,116.1z M149.5,94.5v26.4l15.6,2.8c7.9,1.4,13.3-2.3,13.3-11c0-8.6-5.4-13.8-13.3-15.3L149.5,94.5z"
			/>
		<path class="st9" d="M288.7,141.1c0,23.4-17.6,37.2-43.1,32.7l-36.1-6.4V87.2l36.1,6.3C272.5,98.1,288.7,117.9,288.7,141.1z
			 M229.2,152.9l16.4,2.9c13.7,2.4,23.2-4.8,23.2-18.3c0-14.4-9.2-23.7-23.2-26.2l-16.4-2.9V152.9z"/>
		<path class="st9" d="M362.7,132l-42.8-7.6v18.4l35.8,6.3v17.8l-35.8-6.3v26.1l-19.7-3.5v-80.4l62.5,11V132z"/>
	</g>
</g>
</svg>
