<?xml version="1.0" encoding="utf-8"?>
<!-- Generator: Adobe Illustrator 19.0.0, SVG Export Plug-In . SVG Version: 6.00 Build 0)  -->
<svg version="1.1" id="Layer_1" xmlns="http://www.w3.org/2000/svg" xmlns:xlink="http://www.w3.org/1999/xlink" x="0px" y="0px"
	 viewBox="0 0 96 96" style="enable-background:new 0 0 96 96;" xml:space="preserve">
<style type="text/css">
	.st0{fill:#333333;}
</style>
<g id="XMLID_2_">
	<path id="XMLID_6_" class="st0" d="M57.2,48c0-2.5-0.9-4.7-2.7-6.5c-1.8-1.8-4-2.7-6.5-2.7s-4.7,0.9-6.5,2.7
		c-1.8,1.8-2.7,4-2.7,6.5s0.9,4.7,2.7,6.5c1.8,1.8,4,2.7,6.5,2.7s4.7-0.9,6.5-2.7C56.3,52.7,57.2,50.5,57.2,48z M75.5,44.1V52
		c0,0.3-0.1,0.6-0.3,0.8c-0.2,0.3-0.4,0.4-0.7,0.5l-6.6,1c-0.5,1.3-0.9,2.4-1.4,3.3c0.8,1.2,2.1,2.8,3.8,4.9
		c0.2,0.3,0.4,0.6,0.4,0.9c0,0.3-0.1,0.6-0.3,0.8c-0.6,0.9-1.8,2.2-3.5,3.9c-1.7,1.7-2.8,2.5-3.4,2.5c-0.3,0-0.6-0.1-0.9-0.3
		l-4.9-3.9c-1.1,0.5-2.1,1-3.3,1.4c-0.4,3.2-0.7,5.5-1,6.7c-0.2,0.7-0.6,1-1.3,1H44c-0.3,0-0.6-0.1-0.9-0.3
		c-0.3-0.2-0.4-0.5-0.4-0.8l-1-6.6c-1.2-0.4-2.2-0.8-3.2-1.3l-5,3.8c-0.2,0.2-0.5,0.3-0.9,0.3c-0.3,0-0.6-0.1-0.9-0.4
		c-3-2.7-5-4.7-5.9-6c-0.2-0.2-0.3-0.5-0.3-0.8c0-0.3,0.1-0.6,0.3-0.8c0.4-0.5,1-1.3,1.8-2.4c0.9-1.1,1.5-1.9,1.9-2.5
		c-0.6-1.2-1.1-2.4-1.5-3.5l-6.6-1c-0.3,0-0.6-0.2-0.8-0.4c-0.2-0.3-0.3-0.5-0.3-0.8V44c0-0.3,0.1-0.6,0.3-0.8
		c0.2-0.3,0.4-0.4,0.7-0.5l6.7-1c0.3-1.1,0.8-2.2,1.4-3.3c-1-1.4-2.2-3-3.8-4.9c-0.2-0.3-0.4-0.6-0.4-0.9c0-0.2,0.1-0.5,0.3-0.8
		c0.6-0.9,1.8-2.1,3.5-3.8c1.7-1.7,2.9-2.6,3.4-2.6c0.3,0,0.6,0.1,0.9,0.4l4.9,3.8c1.1-0.5,2.1-1,3.3-1.4c0.4-3.2,0.7-5.5,1-6.7
		c0.2-0.7,0.6-1,1.3-1H52c0.3,0,0.6,0.1,0.9,0.3c0.3,0.2,0.4,0.5,0.4,0.8l1,6.6c1.2,0.4,2.2,0.8,3.2,1.3l5.1-3.8
		c0.2-0.2,0.5-0.3,0.9-0.3c0.3,0,0.6,0.1,0.9,0.4c3.1,2.8,5,4.9,5.9,6.1c0.2,0.2,0.3,0.5,0.3,0.8c0,0.3-0.1,0.6-0.3,0.8
		c-0.4,0.5-1,1.3-1.8,2.4c-0.9,1.1-1.5,1.9-1.9,2.5c0.6,1.2,1.1,2.4,1.5,3.5l6.6,1c0.3,0,0.6,0.2,0.8,0.4
		C75.4,43.5,75.5,43.8,75.5,44.1z"/>
</g>
</svg>
