<?xml version="1.0" encoding="UTF-8" standalone="no"?>
<!-- Generator: Adobe Illustrator 23.0.4, SVG Export Plug-In . SVG Version: 6.00 Build 0)  -->

<svg
   xmlns:dc="http://purl.org/dc/elements/1.1/"
   xmlns:cc="http://creativecommons.org/ns#"
   xmlns:rdf="http://www.w3.org/1999/02/22-rdf-syntax-ns#"
   xmlns:svg="http://www.w3.org/2000/svg"
   xmlns="http://www.w3.org/2000/svg"
   xmlns:sodipodi="http://sodipodi.sourceforge.net/DTD/sodipodi-0.dtd"
   xmlns:inkscape="http://www.inkscape.org/namespaces/inkscape"
   version="1.1"
   id="Ebene_1"
   x="0px"
   y="0px"
   viewBox="0 0 311.81 48.19"
   style="enable-background:new 0 0 311.81 48.19;"
   xml:space="preserve"
   sodipodi:docname="logo_picto.svg"
   inkscape:version="0.92.4 (5da689c313, 2019-01-14)"><metadata
   id="metadata39"><rdf:RDF><cc:Work
       rdf:about=""><dc:format>image/svg+xml</dc:format><dc:type
         rdf:resource="http://purl.org/dc/dcmitype/StillImage" /></cc:Work></rdf:RDF></metadata><defs
   id="defs37" /><sodipodi:namedview
   pagecolor="#0f294b"
   bordercolor="#666666"
   borderopacity="1"
   objecttolerance="10"
   gridtolerance="10"
   guidetolerance="10"
   inkscape:pageopacity="0"
   inkscape:pageshadow="2"
   inkscape:window-width="1335"
   inkscape:window-height="755"
   id="namedview35"
   showgrid="false"
   inkscape:zoom="1.1224784"
   inkscape:cx="155.905"
   inkscape:cy="24.094999"
   inkscape:window-x="1779"
   inkscape:window-y="335"
   inkscape:window-maximized="0"
   inkscape:current-layer="Ebene_1" />
<style
   type="text/css"
   id="style2">
	.st0{fill:#0f294b;}
</style>
<g
   id="g32">
	<g
   id="g22">
		<path
   class="st0"
   d="M88.13,26.95c0,1.93-0.15,3.73-0.46,5.39c-0.3,1.66-0.88,2.92-1.73,3.79c-0.85,0.87-1.87,1.42-3.06,1.64    c-1.19,0.23-2.62,0.34-4.26,0.34h-0.26H61.37V16.43H79.5c3.52,0,5.83,0.81,6.95,2.44C87.57,20.5,88.13,23.19,88.13,26.95z     M85.39,26.98c0-3.04-0.37-5.19-1.12-6.46c-0.75-1.27-2.53-1.9-5.35-1.9H64.01v17.32h14.65c3.04,0,4.92-0.66,5.65-1.99    C85.03,32.62,85.39,30.3,85.39,26.98z"
   id="path4" />
		<path
   class="st0"
   d="M115.67,25.81v2.18h-18.2v7.94h19.11v2.18H94.83V16.4h21.52v2.21H97.47v7.19H115.67z"
   id="path6" />
		<path
   class="st0"
   d="M142.85,19.25c-0.46-0.23-1.28-0.43-2.47-0.58c-1.19-0.15-2.73-0.23-4.62-0.23h-0.91    c-1.43,0-2.91,0.07-4.44,0.2c-1.53,0.13-2.64,0.35-3.34,0.66c-0.69,0.31-1.14,0.73-1.33,1.25c-0.2,0.53-0.29,1.17-0.29,1.91    c0,1.34,0.36,2.25,1.09,2.74c0.73,0.48,1.78,0.73,3.17,0.73h2.38h5.11c0.89,0,1.68,0.01,2.38,0.03c0.69,0.02,1.74,0.11,3.14,0.26    c1.4,0.15,2.53,0.64,3.39,1.48c0.86,0.83,1.29,2.26,1.29,4.27c0,1.32-0.21,2.42-0.62,3.3c-0.41,0.88-1.11,1.54-2.1,1.98    c-0.99,0.44-2.18,0.73-3.58,0.86c-1.4,0.13-2.92,0.2-4.57,0.2h-1.73c-1.63,0-2.85-0.02-3.66-0.05c-0.81-0.03-2.06-0.16-3.74-0.39    c-1.68-0.22-2.88-0.82-3.6-1.77s-1.07-2.63-1.07-5.02h2.64v0.48c0,1.17,0.1,2.03,0.31,2.59c0.21,0.56,0.74,0.97,1.59,1.24    c0.86,0.26,2,0.44,3.43,0.52c1.43,0.08,2.84,0.12,4.23,0.12c2.26,0,4.16-0.1,5.71-0.3c1.55-0.2,2.61-0.57,3.17-1.12    c0.56-0.55,0.85-1.44,0.85-2.69c0-1.58-0.36-2.58-1.09-3c-0.73-0.43-1.96-0.64-3.69-0.64h-4.97l-5.82-0.16    c-2.04,0-3.61-0.39-4.71-1.17c-1.1-0.78-1.66-2.1-1.66-3.97c0-1.48,0.24-2.71,0.71-3.69c0.48-0.99,1.28-1.69,2.42-2.12    c1.14-0.42,2.48-0.69,4.02-0.81c1.54-0.12,3.26-0.18,5.17-0.18c1.58,0,2.73,0.02,3.43,0.05c0.7,0.03,1.85,0.14,3.45,0.31    c1.59,0.17,2.81,0.74,3.66,1.71c0.85,0.97,1.27,2.45,1.27,4.44h-2.64c0-1.05-0.11-1.83-0.34-2.34    C143.62,19.83,143.28,19.46,142.85,19.25z"
   id="path8" />
		<path
   class="st0"
   d="M174.58,16.4h4.51l-15.95,10.48l17.03,11.23h-4.73l-15.1-10.16h-3.84v10.16h-2.64V16.4h2.64v9.38h3.84    L174.58,16.4z"
   id="path10" />
		<path
   class="st0"
   d="M203.69,25.87v2.18H186.5v10.06h-2.64V16.4h20.74v2.21h-18.1v7.26H203.69z"
   id="path12" />
		<path
   class="st0"
   d="M213.1,38.11h-2.64V16.4h2.64V38.11z"
   id="path14" />
		<path
   class="st0"
   d="M240.25,38.11h-19.79V16.4h2.64v19.53h17.16V38.11z"
   id="path16" />
		<path
   class="st0"
   d="M266.06,25.81v2.18h-18.2v7.94h19.11v2.18h-21.75V16.4h21.52v2.21h-18.88v7.19H266.06z"
   id="path18" />
		<path
   class="st0"
   d="M298.52,22.84c0,1.95-0.29,3.29-0.86,4.02c-0.58,0.73-1.83,1.23-3.76,1.51c1.45,0.2,2.52,0.55,3.21,1.06    c0.68,0.51,1.02,1.44,1.02,2.78v5.89h-2.6v-4.82c0-1.61-0.34-2.67-1.03-3.19c-0.68-0.52-1.87-0.78-3.56-0.78h-14.81v8.79h-2.64    V16.4h17.68c2.62,0,4.51,0.44,5.65,1.32C297.95,18.6,298.52,20.31,298.52,22.84z M295.78,22.68c0-1.69-0.4-2.79-1.2-3.3    c-0.8-0.51-2.13-0.77-3.97-0.77h-14.49v8.53h14.55c1.91,0,3.24-0.3,3.99-0.9C295.41,25.65,295.78,24.46,295.78,22.68z"
   id="path20" />
	</g>
	<g
   id="g30">
		<path
   class="st0"
   d="M23.54,35.65l5.15-12.9c0.06-0.16,0.05-0.26,0.04-0.29c-0.02-0.02-0.1-0.07-0.28-0.07H1.73    c0,0.65,0,1.33,0,2.03l0.01,12.27H22C22.59,36.69,23.32,36.2,23.54,35.65z"
   id="path24" />
		<path
   class="st0"
   d="M22.82,15.53c0-0.45-0.37-0.82-0.82-0.82H10.82h-0.56c-0.34-0.36-0.77-0.82-1.18-1.25    c-0.17-0.17-0.36-0.37-0.58-0.6c-0.16-0.17-0.33-0.35-0.52-0.55c-0.39-0.42-0.84-0.91-1.36-1.48h-4.9    c-0.01,1.94-0.01,5.12-0.01,9.73h21.1V15.53z"
   id="path26" />
		<path
   class="st0"
   d="M45.8,8.36C45.57,6.09,44.29,4.1,42.33,3c-0.69-0.39-1.42-0.65-2.25-0.81l-0.43-0.08l-15.72,0    C15.29,2.1,8.1,2.12,7.94,2.13C6.16,2.32,4.49,3.2,3.37,4.54C2.44,5.66,1.89,6.95,1.76,8.4c0,0.05-0.01,0.23-0.01,0.56h5.71    l0.28,0.31c1.29,1.43,2.84,3.08,3.39,3.58H22c1.48,0,2.68,1.2,2.68,2.68v5.02h3.77c0.77,0,1.43,0.32,1.81,0.88    c0.38,0.56,0.44,1.3,0.15,2.01l-5.15,12.9c-0.49,1.24-1.93,2.21-3.26,2.21H1.74l0,1.51l0.08,0.4c0.59,3.02,2.77,5.17,5.79,5.68    c0.36,0.06,1.04,0.06,16.19,0.06c15.03,0,15.84,0,16.17-0.06c0.49-0.09,0.98-0.22,1.36-0.36c2.49-0.93,4.21-3.16,4.48-5.83    C45.85,39.44,45.85,8.86,45.8,8.36z"
   id="path28" />
	</g>
</g>
</svg>