<?xml version="1.0" encoding="utf-8"?>
<!-- Generator: Adobe Illustrator 18.0.0, SVG Export Plug-In . SVG Version: 6.00 Build 0)  -->
<!DOCTYPE svg PUBLIC "-//W3C//DTD SVG 1.1//EN" "http://www.w3.org/Graphics/SVG/1.1/DTD/svg11.dtd">
<svg version="1.1" id="Layer_1" xmlns="http://www.w3.org/2000/svg" xmlns:xlink="http://www.w3.org/1999/xlink" x="0px" y="0px"
	 viewBox="0 0 64 64" enable-background="new 0 0 64 64" xml:space="preserve">
<path d="M60,11H31.4l-3.2-4.6L28,6.2C27.2,5.4,26.2,5,25.2,5H4C1.8,5,0,6.8,0,9v46c0,2.2,1.8,4,4,4h56c2.2,0,4-1.8,4-4V15
	C64,12.8,62.2,11,60,11z M60,55H4V27c0-1.1,0.9-2,2-2h52c1.1,0,2,0.9,2,1.9L60,55z M60,21.3c-0.6-0.2-1.3-0.3-2-0.3H6
	c-0.7,0-1.4,0.1-2,0.3V9h21.1l3.2,4.6l0.2,0.3c0.8,0.8,1.8,1.2,2.8,1.2H60L60,21.3z"/>
</svg>
