<?xml version="1.0" encoding="utf-8"?>
<!-- Generator: Adobe Illustrator 23.0.4, SVG Export Plug-In . SVG Version: 6.00 Build 0)  -->
<svg version="1.1" id="Ebene_1" xmlns="http://www.w3.org/2000/svg" xmlns:xlink="http://www.w3.org/1999/xlink" x="0px" y="0px"
	 viewBox="0 0 255.12 28.35" style="enable-background:new 0 0 255.12 28.35;" xml:space="preserve">
<style type="text/css">
	.st0{fill:#FFFFFF;}
</style>
<g>
	<path class="st0" d="M30.65,13.95c0,2.05-0.16,3.96-0.48,5.72c-0.32,1.76-0.93,3.1-1.83,4.02c-0.9,0.92-1.98,1.5-3.25,1.75
		c-1.27,0.24-2.78,0.36-4.53,0.36h-0.28H2.25V2.79h19.25c3.73,0,6.19,0.86,7.38,2.59S30.65,9.96,30.65,13.95z M27.75,13.98
		c0-3.22-0.4-5.51-1.19-6.86c-0.79-1.35-2.69-2.02-5.68-2.02H5.05v18.38H20.6c3.22,0,5.22-0.7,5.99-2.11
		C27.36,19.97,27.75,17.51,27.75,13.98z"/>
	<path class="st0" d="M59.88,12.74v2.31H40.57v8.43h20.28v2.31H37.77V2.75h22.84V5.1H40.57v7.64H59.88z"/>
	<path class="st0" d="M88.73,5.78c-0.48-0.25-1.36-0.45-2.63-0.61c-1.27-0.16-2.9-0.24-4.91-0.24h-0.97c-1.52,0-3.09,0.07-4.72,0.21
		c-1.62,0.14-2.8,0.37-3.54,0.7c-0.74,0.33-1.21,0.77-1.42,1.33c-0.21,0.56-0.31,1.24-0.31,2.03c0,1.42,0.39,2.39,1.16,2.91
		c0.77,0.51,1.89,0.77,3.37,0.77h2.52h5.42c0.94,0,1.79,0.01,2.52,0.03c0.74,0.02,1.85,0.11,3.33,0.28
		c1.49,0.16,2.68,0.68,3.59,1.57c0.91,0.88,1.36,2.4,1.36,4.53c0,1.4-0.22,2.57-0.66,3.5c-0.44,0.93-1.18,1.63-2.23,2.1
		c-1.05,0.47-2.31,0.78-3.8,0.91c-1.49,0.14-3.1,0.21-4.85,0.21h-1.83c-1.73,0-3.02-0.02-3.89-0.05c-0.86-0.04-2.19-0.17-3.97-0.41
		c-1.79-0.24-3.06-0.87-3.82-1.88s-1.14-2.79-1.14-5.32h2.8v0.51c0,1.24,0.11,2.16,0.33,2.75c0.22,0.6,0.78,1.03,1.69,1.31
		c0.91,0.28,2.12,0.46,3.65,0.55c1.52,0.09,3.02,0.13,4.49,0.13c2.4,0,4.42-0.1,6.06-0.31c1.65-0.21,2.77-0.6,3.37-1.18
		c0.6-0.58,0.9-1.53,0.9-2.86c0-1.67-0.39-2.74-1.16-3.19c-0.77-0.45-2.08-0.68-3.92-0.68h-5.28l-6.18-0.17
		c-2.16,0-3.83-0.41-5-1.24c-1.17-0.83-1.76-2.23-1.76-4.22c0-1.57,0.25-2.87,0.76-3.92c0.51-1.05,1.36-1.8,2.57-2.25
		c1.21-0.45,2.63-0.74,4.26-0.86c1.63-0.13,3.46-0.19,5.49-0.19c1.68,0,2.89,0.02,3.64,0.05c0.75,0.04,1.97,0.14,3.66,0.32
		c1.69,0.18,2.98,0.79,3.88,1.82c0.9,1.03,1.35,2.6,1.35,4.71h-2.8c0-1.11-0.12-1.94-0.36-2.49S89.19,6,88.73,5.78z"/>
	<path class="st0" d="M122.41,2.75h4.78l-16.93,11.13l18.07,11.92h-5.02l-16.02-10.78h-4.08V25.8h-2.8V2.75h2.8v9.95h4.08
		L122.41,2.75z"/>
	<path class="st0" d="M153.31,12.81v2.31h-18.24V25.8h-2.8V2.75h22.01V5.1h-19.21v7.71H153.31z"/>
	<path class="st0" d="M163.29,25.8h-2.8V2.75h2.8V25.8z"/>
	<path class="st0" d="M192.11,25.8H171.1V2.75h2.8v20.73h18.21V25.8z"/>
	<path class="st0" d="M219.51,12.74v2.31H200.2v8.43h20.28v2.31H197.4V2.75h22.84V5.1H200.2v7.64H219.51z"/>
	<path class="st0" d="M253.96,9.59c0,2.07-0.31,3.5-0.92,4.27c-0.61,0.77-1.94,1.31-3.99,1.61c1.54,0.21,2.68,0.58,3.4,1.12
		c0.73,0.54,1.09,1.53,1.09,2.95v6.25h-2.76v-5.11c0-1.7-0.36-2.83-1.09-3.39c-0.73-0.55-1.99-0.83-3.78-0.83h-15.72v9.33h-2.8V2.75
		h18.76c2.79,0,4.79,0.47,5.99,1.4C253.35,5.08,253.96,6.9,253.96,9.59z M251.06,9.42c0-1.8-0.43-2.97-1.28-3.51
		c-0.85-0.54-2.26-0.81-4.22-0.81h-15.38v9.05h15.45c2.03,0,3.44-0.32,4.23-0.95C250.66,12.57,251.06,11.31,251.06,9.42z"/>
</g>
</svg>
