<?xml version="1.0" encoding="utf-8"?>
<!-- Generator: Adobe Illustrator 23.0.4, SVG Export Plug-In . SVG Version: 6.00 Build 0)  -->
<svg version="1.1" xmlns="http://www.w3.org/2000/svg" xmlns:xlink="http://www.w3.org/1999/xlink" x="0px" y="0px"
	 viewBox="0 0 30 30" style="enable-background:new 0 0 30 30;" xml:space="preserve">
<style type="text/css">
	.st0{display:none;}
	.st1{display:inline;}
	.st2{fill:#FFFFFF;}
</style>
<g id="Ebene_1" class="st0">
	<g class="st1">
		<g>
			<path class="st2" d="M23.88,11.61V7.27h-5.59c-0.24,0-0.44-0.15-0.52-0.38s0.01-0.47,0.2-0.61C18.62,5.84,19,5.1,19,4.32
				c0-1.33-1.08-2.42-2.42-2.42c-1.33,0-2.42,1.08-2.42,2.42c0,0.78,0.38,1.52,1.03,1.97c0.19,0.13,0.27,0.38,0.2,0.61
				c-0.07,0.22-0.28,0.38-0.52,0.38H9.29v5.59c0,0.24-0.15,0.44-0.38,0.52c-0.22,0.07-0.47-0.01-0.61-0.2
				c-0.45-0.64-1.19-1.03-1.97-1.03c-1.33,0-2.42,1.08-2.42,2.42c0,1.33,1.08,2.42,2.42,2.42c0.78,0,1.52-0.38,1.97-1.03
				c0.13-0.19,0.38-0.27,0.61-0.2c0.22,0.07,0.38,0.28,0.38,0.52v5.58h5.59c0.24,0,0.44,0.15,0.52,0.38
				c0.07,0.22-0.01,0.47-0.2,0.61c-0.64,0.45-1.03,1.19-1.03,1.97c0,1.33,1.08,2.42,2.42,2.42c1.33,0,2.42-1.08,2.42-2.42
				c0-0.78-0.38-1.52-1.03-1.97c-0.19-0.13-0.27-0.38-0.2-0.61c0.07-0.22,0.28-0.38,0.52-0.38h5.59v-4.34
				c-0.55,0.35-1.21,0.55-1.87,0.55c-1.93,0-3.49-1.57-3.49-3.49c0-1.93,1.57-3.49,3.49-3.49C22.67,11.07,23.32,11.27,23.88,11.61
				L23.88,11.61z M24.95,6.74v6.13c0,0.24-0.15,0.44-0.38,0.52c-0.22,0.07-0.47-0.01-0.61-0.2c-0.45-0.64-1.19-1.03-1.97-1.03
				c-1.33,0-2.42,1.08-2.42,2.42c0,1.33,1.08,2.42,2.42,2.42c0.78,0,1.52-0.38,1.97-1.03c0.13-0.19,0.38-0.27,0.61-0.2
				c0.22,0.07,0.38,0.28,0.38,0.52v6.12c0,0.3-0.24,0.54-0.54,0.54h-4.88c0.35,0.55,0.55,1.2,0.55,1.87c0,1.93-1.57,3.49-3.49,3.49
				c-1.93,0-3.49-1.57-3.49-3.49c0-0.67,0.2-1.32,0.55-1.87H8.76c-0.3,0-0.54-0.24-0.54-0.54V17.5c-0.55,0.35-1.21,0.55-1.87,0.55
				c-1.93,0-3.49-1.57-3.49-3.49c0-1.93,1.57-3.49,3.49-3.49c0.67,0,1.32,0.2,1.87,0.55V6.74c0-0.3,0.24-0.54,0.54-0.54h4.88
				C13.29,5.64,13.1,5,13.1,4.33c0-1.93,1.57-3.49,3.49-3.49c1.93,0,3.49,1.57,3.49,3.49c0,0.67-0.2,1.32-0.55,1.87h4.88
				C24.71,6.2,24.95,6.44,24.95,6.74L24.95,6.74z"/>
		</g>
	</g>
</g>
<g id="Ebene_2" class="st0">
	<g id="cascade" class="st1">
		<path class="st2" d="M25.98,21.77h-0.79v-1.98c0-0.22-0.18-0.39-0.39-0.39h-3.57V18.2h0.79c0.22,0,0.39-0.18,0.39-0.39v-4.76
			c0-0.22-0.18-0.39-0.39-0.39h-0.79v-1.98c0-0.22-0.18-0.39-0.39-0.39h-5.95V9.09h0.79c0.22,0,0.39-0.18,0.39-0.39V3.93
			c0-0.22-0.18-0.39-0.39-0.39H13.3c-0.22,0-0.39,0.18-0.39,0.39v4.76c0,0.22,0.18,0.39,0.39,0.39h0.79v1.19h-1.98H6.17
			c-0.22,0-0.39,0.18-0.39,0.39v1.98H4.98c-0.22,0-0.39,0.18-0.39,0.39v4.76c0,0.22,0.18,0.39,0.39,0.39h0.79v1.58H4.19
			c-0.22,0-0.39,0.18-0.39,0.39v1.58H3c-0.22,0-0.39,0.18-0.39,0.39v4.76c0,0.22,0.18,0.39,0.39,0.39h2.38
			c0.22,0,0.39-0.18,0.39-0.39v-4.76c0-0.22-0.18-0.39-0.39-0.39H4.58v-1.19h1.58h1.58v1.19H6.95c-0.22,0-0.39,0.18-0.39,0.39v4.76
			c0,0.22,0.18,0.39,0.39,0.39h2.38c0.22,0,0.39-0.18,0.39-0.39v-4.76c0-0.22-0.18-0.39-0.39-0.39H8.54v-1.58
			c0-0.22-0.18-0.39-0.39-0.39H6.56V18.2h0.79c0.22,0,0.39-0.18,0.39-0.39v-4.76c0-0.22-0.18-0.39-0.39-0.39H6.56v-1.58h5.15v1.58
			h-0.78c-0.22,0-0.39,0.18-0.39,0.39v4.76c0,0.22,0.18,0.39,0.39,0.39h0.79v3.57h-0.79c-0.22,0-0.39,0.18-0.39,0.39v4.76
			c0,0.22,0.18,0.39,0.39,0.39h2.38c0.22,0,0.39-0.18,0.39-0.39v-4.76c0-0.22-0.18-0.39-0.39-0.39h-0.79V18.2h0.79
			c0.22,0,0.39-0.18,0.39-0.39v-4.76c0-0.22-0.18-0.39-0.39-0.39h-0.79v-1.58h1.98h5.95v1.58h-0.79c-0.22,0-0.39,0.18-0.39,0.39
			v4.76c0,0.22,0.18,0.39,0.39,0.39h0.79v1.19h-3.57c-0.22,0-0.39,0.18-0.39,0.39v1.98h-0.79c-0.22,0-0.39,0.18-0.39,0.39v4.76
			c0,0.22,0.18,0.39,0.39,0.39h2.38c0.22,0,0.39-0.18,0.39-0.39v-4.76c0-0.22-0.18-0.39-0.39-0.39h-0.79v-1.58h3.17v1.58h-0.79
			c-0.22,0-0.39,0.18-0.39,0.39v4.76c0,0.22,0.18,0.39,0.39,0.39h2.38c0.22,0,0.39-0.18,0.39-0.39v-4.76c0-0.22-0.18-0.39-0.39-0.39
			h-0.79v-1.58h3.17v1.58H23.6c-0.22,0-0.39,0.18-0.39,0.39v4.76c0,0.22,0.18,0.39,0.39,0.39h2.38c0.22,0,0.39-0.18,0.39-0.39v-4.76
			C26.38,21.95,26.2,21.77,25.98,21.77z M4.98,22.56v3.96H3.39v-3.96H4.98z M8.94,22.56v3.96H7.36v-3.96H8.94z M6.96,13.45v3.96
			H5.37v-3.96H6.96z M12.9,22.56v3.96h-1.58v-3.96H12.9z M12.9,13.45v3.96h-1.58v-3.96H12.9z M13.7,8.3V4.33h1.58v3.96L13.7,8.3
			L13.7,8.3z M17.66,22.56v3.96h-1.58v-3.96H17.66z M21.63,22.56v3.96h-1.58v-3.96H21.63z M20.04,17.41v-3.96h1.58v3.96H20.04z
			 M25.59,26.53H24v-3.96h1.58V26.53z"/>
	</g>
</g>
<g id="Ebene_3" class="st0">
	<g class="st1">
		<path class="st2" d="M16.39,28.62h-2.28c-0.97,0-1.8-0.7-1.98-1.66l-0.26-1.58c-0.42-0.15-0.86-0.33-1.3-0.55l-1.31,0.93
			c-0.35,0.24-0.77,0.38-1.17,0.38c-0.53,0-1.05-0.21-1.42-0.59l-1.62-1.62c-0.69-0.69-0.78-1.78-0.21-2.59l0.93-1.29
			c-0.23-0.46-0.42-0.91-0.57-1.36l-1.6-0.26c-0.95-0.14-1.67-0.99-1.67-1.98v-2.28c0-0.97,0.7-1.8,1.66-1.98l1.55-0.26
			c0.17-0.51,0.35-0.95,0.55-1.36L4.74,9.26c-0.58-0.78-0.49-1.9,0.21-2.6l1.6-1.6c0.39-0.39,0.88-0.59,1.42-0.59
			c0.41,0,0.83,0.13,1.17,0.38l1.29,0.93c0.46-0.23,0.91-0.42,1.36-0.57l0.26-1.57c0.13-0.95,0.99-1.67,1.98-1.67h2.28
			c0.97,0,1.8,0.7,1.98,1.66l0.26,1.54c0.49,0.16,0.96,0.35,1.42,0.58l1.31-0.93c0.35-0.24,0.77-0.38,1.17-0.38
			c0.53,0,1.05,0.21,1.42,0.59l1.62,1.62c0.69,0.69,0.78,1.78,0.21,2.59l-0.93,1.28c0.21,0.42,0.41,0.87,0.57,1.36l1.57,0.26
			c0.99,0.14,1.7,0.99,1.67,1.96l0,2.27c0,0.97-0.7,1.8-1.66,1.98l-1.58,0.26c-0.16,0.45-0.35,0.9-0.57,1.36l0.93,1.31
			c0.58,0.78,0.49,1.9-0.21,2.6l-1.62,1.62c-0.39,0.39-0.88,0.59-1.42,0.59c-0.41,0-0.83-0.13-1.17-0.38l-1.28-0.93
			c-0.42,0.21-0.87,0.41-1.36,0.57l-0.26,1.57C18.23,27.9,17.38,28.62,16.39,28.62z M10.49,23.88l0.22,0.11
			c0.57,0.28,1.12,0.52,1.65,0.69l0.24,0.08l0.34,2.06c0.1,0.56,0.59,0.98,1.16,0.98h2.28c0.58,0,1.08-0.42,1.16-0.97l0.35-2.08
			l0.24-0.08c0.62-0.2,1.19-0.44,1.69-0.71l0.23-0.13l1.7,1.23c0.21,0.14,0.45,0.22,0.69,0.22c0.32,0,0.61-0.12,0.84-0.35l1.62-1.62
			c0.41-0.41,0.46-1.07,0.12-1.53l-1.22-1.73l0.12-0.22c0.3-0.57,0.54-1.13,0.72-1.7l0.08-0.24l2.07-0.34
			c0.56-0.1,0.98-0.59,0.98-1.16v-2.28c0.02-0.57-0.4-1.05-0.97-1.13l-0.01,0l-2.07-0.34l-0.08-0.24c-0.2-0.62-0.44-1.19-0.71-1.69
			l-0.13-0.23l1.23-1.7c0.33-0.47,0.28-1.13-0.12-1.53l-1.62-1.62c-0.39-0.39-1.05-0.46-1.54-0.12l-1.72,1.22l-0.22-0.12
			c-0.55-0.29-1.14-0.53-1.75-0.71l-0.24-0.07l-0.35-2.04c-0.1-0.56-0.59-0.98-1.16-0.98h-2.28c-0.58,0-1.08,0.42-1.16,0.97
			l-0.35,2.08l-0.24,0.08c-0.56,0.18-1.12,0.41-1.7,0.72l-0.23,0.12L8.66,5.53C8.46,5.39,8.21,5.31,7.97,5.31
			c-0.32,0-0.61,0.12-0.84,0.35l-1.6,1.6C5.13,7.66,5.07,8.32,5.41,8.78l1.22,1.73l-0.12,0.22c-0.26,0.49-0.48,1.03-0.69,1.7
			l-0.08,0.24l-2.04,0.34c-0.56,0.1-0.98,0.59-0.98,1.16v2.28c0,0.58,0.42,1.08,0.97,1.16l2.1,0.35l0.08,0.24
			c0.18,0.56,0.41,1.12,0.72,1.7l0.12,0.23L5.5,21.82c-0.33,0.47-0.28,1.13,0.12,1.53l1.62,1.62c0.39,0.39,1.05,0.46,1.54,0.12
			L10.49,23.88z"/>
		<path class="st2" d="M15.24,20.78c-3.04,0-5.51-2.47-5.51-5.51c0-3.04,2.47-5.51,5.51-5.51c3.04,0,5.51,2.47,5.51,5.51
			C20.74,18.31,18.27,20.78,15.24,20.78z M15.24,10.59c-2.58,0-4.68,2.1-4.68,4.68s2.1,4.68,4.68,4.68s4.68-2.1,4.68-4.68
			S17.82,10.59,15.24,10.59z"/>
	</g>
</g>
<g id="Ebene_4">
	<g id="log">
		<g id="Ebene_3_1_" class="st0">
		</g>
		<g id="Ebene_4_1_">
			<g>
				<rect x="10.43" y="16.5" class="st2" width="10.47" height="1.26"/>
				<rect x="10.43" y="19.02" class="st2" width="10.47" height="1.26"/>
				<rect x="10.43" y="13.97" class="st2" width="10.47" height="1.26"/>
				<rect x="10.43" y="11.45" class="st2" width="10.47" height="1.26"/>
				<rect x="10.43" y="8.92" class="st2" width="7.6" height="1.26"/>
				<polygon class="st2" points="22.63,5.2 21.97,5.2 21.97,7.57 23.67,8.68 24.04,8.16 22.63,7.23 				"/>
				<path class="st2" d="M26.77,7.07c0-2.3-1.95-4.16-4.35-4.16c-1.65,0-3.09,0.88-3.82,2.18H5.95c-1.27,0-2.31,1.04-2.31,2.31v3.03
					H7v13.92c0,1.27,1.04,2.31,2.31,2.31h13.35c1.43,0,2.6-1.17,2.6-2.6v-2.5h-1.58V11.45v-0.39l0,0
					C25.46,10.54,26.77,8.95,26.77,7.07z M7,9.19H4.89V7.42c0-0.58,0.47-1.05,1.05-1.05s1.05,0.47,1.05,1.05L7,9.19L7,9.19z
					 M10.36,24.37c0,0.58-0.47,1.05-1.05,1.05c-0.58,0-1.05-0.47-1.05-1.05V7.42c0-0.38-0.09-0.74-0.25-1.05h9.95h0.18
					c-0.04,0.23-0.07,0.47-0.07,0.71c0,2.3,1.95,4.16,4.35,4.16c0.07,0,0.13,0,0.2-0.01c-0.07,0-0.13,0.01-0.2,0.01v0.28v10.06
					H10.36V24.37z M18.59,5.1c-0.03,0.05-0.06,0.1-0.08,0.16C18.53,5.21,18.56,5.15,18.59,5.1z M18.47,5.33
					c-0.01,0.03-0.03,0.06-0.04,0.09C18.44,5.4,18.46,5.37,18.47,5.33z M18.39,5.52c-0.01,0.02-0.02,0.05-0.03,0.07
					C18.37,5.56,18.38,5.54,18.39,5.52z M18.32,5.7c-0.01,0.01-0.01,0.03-0.02,0.04C18.3,5.73,18.31,5.71,18.32,5.7z M23.99,22.84
					v1.25c0,0.74-0.6,1.34-1.34,1.34H11.37c0.16-0.31,0.25-0.67,0.25-1.05v-1.53L23.99,22.84L23.99,22.84z M23.34,11.14
					c0.03-0.01,0.05-0.01,0.08-0.02C23.4,11.13,23.37,11.13,23.34,11.14z M22.68,11.22c0.05,0,0.09-0.01,0.14-0.01
					C22.77,11.22,22.73,11.22,22.68,11.22z M22.88,11.21c0.06-0.01,0.12-0.01,0.18-0.02C23,11.19,22.94,11.21,22.88,11.21z
					 M23.14,11.18c0.04-0.01,0.07-0.01,0.11-0.02C23.22,11.16,23.18,11.17,23.14,11.18z M22.42,10.6c-2.04,0-3.69-1.58-3.69-3.53
					s1.66-3.53,3.69-3.53s3.69,1.58,3.69,3.53S24.45,10.6,22.42,10.6z"/>
			</g>
		</g>
	</g>
</g>
</svg>
