<?xml version="1.0" encoding="utf-8"?>
<!-- Generator: Adobe Illustrator 23.0.4, SVG Export Plug-In . SVG Version: 6.00 Build 0)  -->
<svg version="1.1" xmlns="http://www.w3.org/2000/svg" xmlns:xlink="http://www.w3.org/1999/xlink" x="0px" y="0px"
	 viewBox="0 0 30 30" style="enable-background:new 0 0 30 30;" xml:space="preserve">
<style type="text/css">
	.st0{display:none;}
	.st1{display:inline;}
	.st2{fill:#FFFFFF;}
</style>
<g id="Ebene_1" class="st0">
	<g class="st1">
		<g>
			<path class="st2" d="M23.88,11.61V7.27h-5.59c-0.24,0-0.44-0.15-0.52-0.38s0.01-0.47,0.2-0.61C18.62,5.84,19,5.1,19,4.32
				c0-1.33-1.08-2.42-2.42-2.42c-1.33,0-2.42,1.08-2.42,2.42c0,0.78,0.38,1.52,1.03,1.97c0.19,0.13,0.27,0.38,0.2,0.61
				c-0.07,0.22-0.28,0.38-0.52,0.38H9.29v5.59c0,0.24-0.15,0.44-0.38,0.52c-0.22,0.07-0.47-0.01-0.61-0.2
				c-0.45-0.64-1.19-1.03-1.97-1.03c-1.33,0-2.42,1.08-2.42,2.42c0,1.33,1.08,2.42,2.42,2.42c0.78,0,1.52-0.38,1.97-1.03
				c0.13-0.19,0.38-0.27,0.61-0.2c0.22,0.07,0.38,0.28,0.38,0.52v5.58h5.59c0.24,0,0.44,0.15,0.52,0.38
				c0.07,0.22-0.01,0.47-0.2,0.61c-0.64,0.45-1.03,1.19-1.03,1.97c0,1.33,1.08,2.42,2.42,2.42c1.33,0,2.42-1.08,2.42-2.42
				c0-0.78-0.38-1.52-1.03-1.97c-0.19-0.13-0.27-0.38-0.2-0.61c0.07-0.22,0.28-0.38,0.52-0.38h5.59v-4.34
				c-0.55,0.35-1.21,0.55-1.87,0.55c-1.93,0-3.49-1.57-3.49-3.49c0-1.93,1.57-3.49,3.49-3.49C22.67,11.07,23.32,11.27,23.88,11.61
				L23.88,11.61z M24.95,6.74v6.13c0,0.24-0.15,0.44-0.38,0.52c-0.22,0.07-0.47-0.01-0.61-0.2c-0.45-0.64-1.19-1.03-1.97-1.03
				c-1.33,0-2.42,1.08-2.42,2.42c0,1.33,1.08,2.42,2.42,2.42c0.78,0,1.52-0.38,1.97-1.03c0.13-0.19,0.38-0.27,0.61-0.2
				c0.22,0.07,0.38,0.28,0.38,0.52v6.12c0,0.3-0.24,0.54-0.54,0.54h-4.88c0.35,0.55,0.55,1.2,0.55,1.87c0,1.93-1.57,3.49-3.49,3.49
				c-1.93,0-3.49-1.57-3.49-3.49c0-0.67,0.2-1.32,0.55-1.87H8.76c-0.3,0-0.54-0.24-0.54-0.54V17.5c-0.55,0.35-1.21,0.55-1.87,0.55
				c-1.93,0-3.49-1.57-3.49-3.49c0-1.93,1.57-3.49,3.49-3.49c0.67,0,1.32,0.2,1.87,0.55V6.74c0-0.3,0.24-0.54,0.54-0.54h4.88
				C13.29,5.64,13.1,5,13.1,4.33c0-1.93,1.57-3.49,3.49-3.49c1.93,0,3.49,1.57,3.49,3.49c0,0.67-0.2,1.32-0.55,1.87h4.88
				C24.71,6.2,24.95,6.44,24.95,6.74L24.95,6.74z"/>
		</g>
	</g>
</g>
<g id="Ebene_2">
	<g id="cascade">
		<path class="st2" d="M25.98,21.77h-0.79v-1.98c0-0.22-0.18-0.39-0.39-0.39h-3.57V18.2h0.79c0.22,0,0.39-0.18,0.39-0.39v-4.76
			c0-0.22-0.18-0.39-0.39-0.39h-0.79v-1.98c0-0.22-0.18-0.39-0.39-0.39h-5.95V9.09h0.79c0.22,0,0.39-0.18,0.39-0.39V3.93
			c0-0.22-0.18-0.39-0.39-0.39H13.3c-0.22,0-0.39,0.18-0.39,0.39v4.76c0,0.22,0.18,0.39,0.39,0.39h0.79v1.19h-1.98H6.17
			c-0.22,0-0.39,0.18-0.39,0.39v1.98H4.98c-0.22,0-0.39,0.18-0.39,0.39v4.76c0,0.22,0.18,0.39,0.39,0.39h0.79v1.58H4.19
			c-0.22,0-0.39,0.18-0.39,0.39v1.58H3c-0.22,0-0.39,0.18-0.39,0.39v4.76c0,0.22,0.18,0.39,0.39,0.39h2.38
			c0.22,0,0.39-0.18,0.39-0.39v-4.76c0-0.22-0.18-0.39-0.39-0.39H4.58v-1.19h1.58h1.58v1.19H6.95c-0.22,0-0.39,0.18-0.39,0.39v4.76
			c0,0.22,0.18,0.39,0.39,0.39h2.38c0.22,0,0.39-0.18,0.39-0.39v-4.76c0-0.22-0.18-0.39-0.39-0.39H8.54v-1.58
			c0-0.22-0.18-0.39-0.39-0.39H6.56V18.2h0.79c0.22,0,0.39-0.18,0.39-0.39v-4.76c0-0.22-0.18-0.39-0.39-0.39H6.56v-1.58h5.15v1.58
			h-0.78c-0.22,0-0.39,0.18-0.39,0.39v4.76c0,0.22,0.18,0.39,0.39,0.39h0.79v3.57h-0.79c-0.22,0-0.39,0.18-0.39,0.39v4.76
			c0,0.22,0.18,0.39,0.39,0.39h2.38c0.22,0,0.39-0.18,0.39-0.39v-4.76c0-0.22-0.18-0.39-0.39-0.39h-0.79V18.2h0.79
			c0.22,0,0.39-0.18,0.39-0.39v-4.76c0-0.22-0.18-0.39-0.39-0.39h-0.79v-1.58h1.98h5.95v1.58h-0.79c-0.22,0-0.39,0.18-0.39,0.39
			v4.76c0,0.22,0.18,0.39,0.39,0.39h0.79v1.19h-3.57c-0.22,0-0.39,0.18-0.39,0.39v1.98h-0.79c-0.22,0-0.39,0.18-0.39,0.39v4.76
			c0,0.22,0.18,0.39,0.39,0.39h2.38c0.22,0,0.39-0.18,0.39-0.39v-4.76c0-0.22-0.18-0.39-0.39-0.39h-0.79v-1.58h3.17v1.58h-0.79
			c-0.22,0-0.39,0.18-0.39,0.39v4.76c0,0.22,0.18,0.39,0.39,0.39h2.38c0.22,0,0.39-0.18,0.39-0.39v-4.76c0-0.22-0.18-0.39-0.39-0.39
			h-0.79v-1.58h3.17v1.58H23.6c-0.22,0-0.39,0.18-0.39,0.39v4.76c0,0.22,0.18,0.39,0.39,0.39h2.38c0.22,0,0.39-0.18,0.39-0.39v-4.76
			C26.38,21.95,26.2,21.77,25.98,21.77z M4.98,22.56v3.96H3.39v-3.96H4.98z M8.94,22.56v3.96H7.36v-3.96H8.94z M6.96,13.45v3.96
			H5.37v-3.96H6.96z M12.9,22.56v3.96h-1.58v-3.96H12.9z M12.9,13.45v3.96h-1.58v-3.96H12.9z M13.7,8.3V4.33h1.58v3.96L13.7,8.3
			L13.7,8.3z M17.66,22.56v3.96h-1.58v-3.96H17.66z M21.63,22.56v3.96h-1.58v-3.96H21.63z M20.04,17.41v-3.96h1.58v3.96H20.04z
			 M25.59,26.53H24v-3.96h1.58V26.53z"/>
	</g>
</g>
</svg>
